<svg xmlns="http://www.w3.org/2000/svg" xmlns:v="https://svgstorm.com"
viewBox = "0 0 1913 1338"
width="1913"
height="1338">
<g fill="None" fill-opacity="0.0" stroke="#FEFEFE" stroke-opacity="1.00" stroke-width="0.3"><path d="
M 0.00 710.00 
C 37.00 710.00 74.00 710.00 111.00 710.00
C 111.00 729.00 111.00 748.00 111.00 767.00
C 134.54 772.76 158.13 778.41 182.00 783.00
C 182.00 812.67 182.00 842.33 182.00 872.00
C 206.33 872.00 230.67 872.00 255.00 872.00
C 255.00 877.33 255.00 882.67 255.00 888.00
C 258.33 887.99 261.67 888.00 265.00 888.00
C 269.30 884.96 264.72 873.35 266.00 868.00 C 267.28 862.65 265.40 853.23 266.00 847.00 C 266.60 840.77 265.69 832.60 266.00 826.00 C 266.31 819.40 265.77 811.70 266.00 805.00
C 275.52 804.95 286.63 805.07 296.00 805.00 C 305.37 804.93 313.96 807.05 320.00 799.00
C 326.91 790.91 334.27 786.82 333.00 775.00 C 331.73 763.18 333.95 749.03 333.00 737.00
C 380.00 737.00 427.00 737.00 474.00 737.00
C 477.36 739.35 474.01 747.90 475.00 752.00 C 475.99 756.10 474.25 763.59 475.00 768.00
C 500.00 768.00 525.00 768.00 550.00 768.00
C 550.00 779.33 550.00 790.67 550.00 802.00
C 600.50 802.67 652.32 800.67 702.00 803.00
C 703.71 805.44 701.48 811.85 702.00 815.00 C 702.52 818.15 702.32 823.71 702.00 827.00
C 726.33 827.00 750.67 827.00 775.00 827.00
C 774.36 815.94 775.85 805.07 775.00 794.00 C 774.15 782.93 784.45 783.27 792.08 778.08 C 799.71 772.90 806.66 769.01 817.00 770.00 C 827.34 770.99 839.25 769.54 850.00 770.00 C 860.75 770.46 872.02 769.77 883.00 770.00 C 893.98 770.23 905.93 769.82 917.00 770.00
C 917.00 746.00 917.00 722.00 917.00 698.00
C 964.34 698.00 1011.66 698.00 1059.00 698.00
C 1059.67 737.25 1057.67 777.20 1060.00 816.00
C 1066.00 816.00 1075.34 817.16 1081.00 816.00 C 1086.66 814.84 1097.57 819.10 1102.00 816.00
C 1102.21 809.82 1101.72 803.13 1102.00 797.00 C 1102.28 790.87 1101.48 782.85 1102.00 777.00 C 1102.52 771.15 1100.83 763.04 1102.00 758.00 C 1103.17 752.96 1099.07 741.75 1103.00 739.00
C 1107.28 736.00 1116.59 740.41 1122.00 739.00 C 1127.41 737.59 1135.07 739.75 1141.00 739.00 C 1146.93 738.25 1154.99 739.65 1161.00 739.00 C 1167.01 738.35 1174.25 740.01 1180.00 739.00 C 1185.75 737.99 1193.67 741.19 1198.67 738.67 C 1203.67 736.15 1197.34 723.80 1200.00 720.00
C 1201.68 717.60 1212.98 718.73 1216.00 719.00
C 1219.03 721.92 1217.41 737.51 1217.00 742.00
C 1229.49 742.00 1242.56 740.88 1255.00 742.00
C 1259.70 746.52 1254.31 759.34 1256.00 766.00 C 1257.69 772.66 1254.73 783.92 1256.00 791.00
C 1273.00 791.00 1290.00 791.00 1307.00 791.00
C 1307.00 809.34 1307.00 827.66 1307.00 846.00
C 1342.33 846.00 1377.67 846.00 1413.00 846.00
C 1413.49 858.57 1412.35 872.57 1413.00 885.00 C 1413.65 897.43 1410.86 912.14 1415.00 922.00
C 1420.95 919.25 1433.47 911.70 1440.00 912.00
C 1444.07 912.19 1441.09 921.33 1442.00 926.00
C 1446.67 926.00 1451.34 926.00 1456.00 926.00
C 1456.00 916.00 1456.00 906.00 1456.00 896.00
C 1468.00 896.00 1480.00 896.00 1492.00 896.00
C 1492.00 877.00 1492.00 858.00 1492.00 839.00
C 1507.66 839.00 1523.34 839.00 1539.00 839.00
C 1538.99 758.00 1539.00 677.00 1539.00 596.00
C 1553.02 596.05 1566.98 595.93 1581.00 596.00 C 1595.02 596.07 1610.06 595.86 1624.00 596.00 C 1637.94 596.14 1652.32 595.70 1666.00 596.00 C 1679.68 596.30 1695.89 595.36 1709.00 596.00 C 1722.11 596.64 1741.77 590.51 1741.00 606.00 C 1740.23 621.49 1741.40 634.06 1741.00 649.00 C 1740.60 663.94 1741.30 677.21 1741.00 692.00
C 1793.00 692.00 1845.00 692.00 1897.00 692.00
C 1897.00 722.00 1897.00 752.00 1897.00 782.00
C 1902.55 783.95 1907.44 787.74 1913.00 790.00
L 1913.00 0.00
L 0.00 0.00
L 0.00 710.00 Z"/>
</g>
<g fill="None" fill-opacity="0.0" stroke="#B2B3B2" stroke-opacity="1.00" stroke-width="0.3"><path d="
M 1456.00 926.00 
C 1481.37 926.00 1506.62 925.13 1532.00 926.00 C 1557.38 926.87 1583.70 923.71 1609.00 926.00
C 1613.24 930.11 1608.79 940.69 1610.00 947.00 C 1611.21 953.31 1609.42 963.06 1610.00 970.00 C 1610.58 976.94 1609.71 984.75 1610.00 992.00 C 1610.29 999.25 1609.78 1007.65 1610.00 1015.00
C 1620.67 1015.00 1631.33 1015.00 1642.00 1015.00
C 1641.98 1008.00 1642.01 1001.00 1642.00 994.00 C 1641.99 987.00 1642.00 980.00 1642.00 973.00 C 1642.00 966.00 1642.00 959.00 1642.00 952.00 C 1642.00 945.00 1641.99 937.99 1642.00 931.00 C 1642.01 924.01 1641.97 916.98 1642.00 910.00 C 1642.03 903.02 1641.93 895.96 1642.00 889.00 C 1642.07 882.04 1641.85 874.91 1642.00 868.00 C 1642.15 861.09 1641.67 853.80 1642.00 847.00 C 1642.33 840.20 1641.28 832.56 1642.00 826.00 C 1642.72 819.44 1640.39 811.02 1642.00 805.00 C 1643.61 798.98 1638.62 787.83 1642.00 783.00
C 1643.54 780.80 1647.66 782.60 1650.00 782.00
C 1650.24 768.64 1649.69 753.14 1650.00 740.00 C 1650.31 726.86 1645.13 707.52 1661.00 709.00 C 1676.87 710.48 1689.08 708.20 1704.00 709.00 C 1718.92 709.80 1731.58 708.38 1746.00 709.00 C 1760.42 709.62 1774.55 707.70 1788.00 710.00
C 1791.49 748.35 1785.38 787.57 1788.00 826.00
C 1808.33 826.00 1828.67 826.00 1849.00 826.00
C 1853.06 829.92 1848.04 840.87 1850.00 846.00
C 1871.00 846.00 1892.00 846.00 1913.00 846.00
L 1913.00 790.00
C 1907.44 787.74 1902.55 783.95 1897.00 782.00
C 1897.00 752.00 1897.00 722.00 1897.00 692.00
C 1845.00 692.00 1793.00 692.00 1741.00 692.00
C 1741.30 677.21 1740.60 663.94 1741.00 649.00 C 1741.40 634.06 1740.23 621.49 1741.00 606.00 C 1741.77 590.51 1722.11 596.64 1709.00 596.00 C 1695.89 595.36 1679.68 596.30 1666.00 596.00 C 1652.32 595.70 1637.94 596.14 1624.00 596.00 C 1610.06 595.86 1595.02 596.07 1581.00 596.00 C 1566.98 595.93 1553.02 596.05 1539.00 596.00
C 1539.00 677.00 1538.99 758.00 1539.00 839.00
C 1523.34 839.00 1507.66 839.00 1492.00 839.00
C 1492.00 858.00 1492.00 877.00 1492.00 896.00
C 1480.00 896.00 1468.00 896.00 1456.00 896.00
C 1456.00 906.00 1456.00 916.00 1456.00 926.00 Z"/>
</g>
<g fill="None" fill-opacity="0.0" stroke="#B1B2B1" stroke-opacity="1.00" stroke-width="0.3"><path d="
M 702.00 827.00 
C 702.25 832.94 701.66 839.08 702.00 845.00 C 702.34 850.92 701.38 858.26 702.00 864.00 C 702.62 869.74 700.60 876.78 702.00 882.00 C 703.40 887.22 699.07 896.82 702.00 901.00
C 705.83 904.83 715.33 900.93 721.00 902.00 C 726.67 903.07 734.76 901.50 741.00 902.00 C 747.24 902.50 754.48 901.74 761.00 902.00 C 767.52 902.26 775.45 901.79 782.00 902.00 C 788.55 902.21 795.62 901.71 802.00 902.00 C 808.38 902.29 815.98 901.42 822.00 902.00 C 828.02 902.58 836.77 900.75 842.00 902.00 C 847.23 903.25 859.15 898.93 862.00 903.00
C 865.29 907.69 860.51 918.05 862.00 924.00 C 863.49 929.95 861.32 938.49 862.00 945.00 C 862.68 951.51 861.68 959.26 862.00 966.00 C 862.32 972.74 861.82 980.21 862.00 987.00 C 862.18 993.79 861.83 1001.29 862.00 1008.00 C 862.17 1014.71 861.74 1022.57 862.00 1029.00 C 862.26 1035.43 861.48 1044.23 862.00 1050.00 C 862.52 1055.77 867.92 1057.92 872.00 1061.00
C 872.81 1061.61 874.01 1062.80 875.00 1063.00
C 872.44 1055.16 876.15 1045.31 875.00 1037.00 C 873.85 1028.69 875.50 1019.54 875.00 1011.00 C 874.50 1002.46 875.24 992.56 875.00 984.00 C 874.76 975.44 875.11 966.39 875.00 958.00 C 874.89 949.61 875.05 940.02 875.00 932.00 C 874.95 923.98 872.31 910.93 882.00 912.00 C 891.69 913.07 899.39 910.91 908.00 912.00 C 916.61 913.09 926.51 910.18 934.00 912.00 C 941.49 913.82 955.05 907.89 960.00 913.00
C 960.25 913.26 960.00 914.00 960.00 914.00
C 960.00 920.70 959.98 927.29 960.00 934.00 C 960.02 940.71 959.94 947.25 960.00 954.00 C 960.06 960.75 959.87 968.27 960.00 975.00 C 960.13 981.73 959.69 988.38 960.00 995.00 C 960.31 1001.62 959.34 1009.61 960.00 1016.00 C 960.66 1022.39 958.47 1030.20 960.00 1036.00 C 961.53 1041.80 956.76 1052.37 960.00 1057.00
C 969.33 1057.00 978.67 1057.00 988.00 1057.00
C 988.67 985.50 986.67 912.68 989.00 842.00
C 992.92 833.62 999.15 833.37 1003.75 824.75 C 1008.36 816.13 1016.95 815.27 1027.00 816.00 C 1037.05 816.73 1049.71 816.00 1060.00 816.00
C 1057.67 777.20 1059.67 737.25 1059.00 698.00
C 1011.66 698.00 964.34 698.00 917.00 698.00
C 917.00 722.00 917.00 746.00 917.00 770.00
C 905.93 769.82 893.98 770.23 883.00 770.00 C 872.02 769.77 860.75 770.46 850.00 770.00 C 839.25 769.54 827.34 770.99 817.00 770.00 C 806.66 769.01 799.71 772.90 792.08 778.08 C 784.45 783.27 774.15 782.93 775.00 794.00 C 775.85 805.07 774.36 815.94 775.00 827.00
C 750.67 827.00 726.33 827.00 702.00 827.00 Z"/>
</g>
<g fill="None" fill-opacity="0.0" stroke="#7F7E7E" stroke-opacity="1.00" stroke-width="0.3"><path d="
M 1642.00 783.00 
C 1657.60 783.90 1649.49 762.90 1651.00 751.00 C 1652.51 739.10 1649.87 722.34 1651.00 710.00
C 1696.34 710.00 1741.66 710.00 1787.00 710.00
C 1787.50 710.00 1788.00 710.00 1788.00 710.00
C 1774.55 707.70 1760.42 709.62 1746.00 709.00 C 1731.58 708.38 1718.92 709.80 1704.00 709.00 C 1689.08 708.20 1676.87 710.48 1661.00 709.00 C 1645.13 707.52 1650.31 726.86 1650.00 740.00 C 1649.69 753.14 1650.24 768.64 1650.00 782.00
C 1647.66 782.60 1643.54 780.80 1642.00 783.00 Z"/>
</g>
<g fill="None" fill-opacity="0.0" stroke="#B1B2B1" stroke-opacity="1.00" stroke-width="0.3"><path d="
M 0.00 945.00 
C 21.33 945.00 42.67 945.00 64.00 945.00
C 63.92 933.76 64.11 918.88 64.00 908.00 C 63.89 897.12 74.48 893.81 80.00 886.00
C 80.95 884.68 82.01 883.21 83.00 882.00
C 94.67 867.77 109.38 872.15 127.00 872.00 C 144.62 871.85 164.20 872.00 182.00 872.00
C 182.00 842.33 182.00 812.67 182.00 783.00
C 158.13 778.41 134.54 772.76 111.00 767.00
C 111.00 748.00 111.00 729.00 111.00 710.00
C 74.00 710.00 37.00 710.00 0.00 710.00
L 0.00 945.00 Z"/>
</g>
<g fill="None" fill-opacity="0.0" stroke="#525151" stroke-opacity="1.00" stroke-width="0.3"><path d="
M 1642.00 783.00 
C 1638.62 787.83 1643.61 798.98 1642.00 805.00 C 1640.39 811.02 1642.72 819.44 1642.00 826.00 C 1641.28 832.56 1642.33 840.20 1642.00 847.00 C 1641.67 853.80 1642.15 861.09 1642.00 868.00 C 1641.85 874.91 1642.07 882.04 1642.00 889.00 C 1641.93 895.96 1642.03 903.02 1642.00 910.00 C 1641.97 916.98 1642.01 924.01 1642.00 931.00 C 1641.99 937.99 1642.00 945.00 1642.00 952.00 C 1642.00 959.00 1642.00 966.00 1642.00 973.00 C 1642.00 980.00 1641.99 987.00 1642.00 994.00 C 1642.01 1001.00 1641.98 1008.00 1642.00 1015.00
C 1642.00 1015.50 1642.00 1016.00 1642.00 1016.00
C 1646.77 1011.41 1641.58 999.13 1643.00 992.00 C 1644.42 984.87 1642.36 973.97 1643.00 966.00 C 1643.64 958.03 1642.71 948.35 1643.00 940.00 C 1643.29 931.65 1642.87 922.53 1643.00 914.00 C 1643.13 905.48 1642.94 896.60 1643.00 888.00 C 1643.06 879.40 1642.97 870.64 1643.00 862.00 C 1643.03 853.36 1642.99 844.65 1643.00 836.00 C 1643.01 827.35 1642.99 818.66 1643.00 810.00 C 1643.01 801.34 1642.99 792.66 1643.00 784.00
C 1657.47 781.34 1674.42 784.84 1689.00 783.00 C 1703.58 781.16 1714.52 785.15 1723.75 795.25 C 1732.98 805.35 1740.32 806.27 1749.25 816.75 C 1758.17 827.23 1773.46 827.21 1787.00 826.00
C 1784.00 821.75 1788.33 812.44 1787.00 807.00 C 1785.67 801.56 1787.55 794.04 1787.00 788.00 C 1786.45 781.96 1787.22 774.26 1787.00 768.00 C 1786.78 761.74 1786.99 755.34 1787.00 749.00 C 1787.01 742.66 1786.76 736.43 1787.00 730.00 C 1787.24 723.57 1786.42 716.45 1787.00 710.00
C 1741.66 710.00 1696.34 710.00 1651.00 710.00
C 1649.87 722.34 1652.51 739.10 1651.00 751.00 C 1649.49 762.90 1657.60 783.90 1642.00 783.00 Z"/>
</g>
<g fill="None" fill-opacity="0.0" stroke="#656465" stroke-opacity="1.00" stroke-width="0.3"><path d="
M 1787.00 826.00 
C 1806.58 827.84 1829.04 828.75 1849.00 827.00
C 1849.00 826.50 1849.00 826.00 1849.00 826.00
C 1828.67 826.00 1808.33 826.00 1788.00 826.00
C 1785.38 787.57 1791.49 748.35 1788.00 710.00
C 1788.00 710.00 1787.50 710.00 1787.00 710.00
C 1786.42 716.45 1787.24 723.57 1787.00 730.00 C 1786.76 736.43 1787.01 742.66 1787.00 749.00 C 1786.99 755.34 1786.78 761.74 1787.00 768.00 C 1787.22 774.26 1786.45 781.96 1787.00 788.00 C 1787.55 794.04 1785.67 801.56 1787.00 807.00 C 1788.33 812.44 1784.00 821.75 1787.00 826.00 Z"/>
</g>
<g fill="None" fill-opacity="0.0" stroke="#9D9C9E" stroke-opacity="1.00" stroke-width="0.3"><path d="
M 1200.00 720.00 
C 1205.30 719.65 1210.71 720.47 1216.00 720.00
C 1216.00 719.50 1216.00 719.00 1216.00 719.00
C 1212.98 718.73 1201.68 717.60 1200.00 720.00 Z"/>
</g>
<g fill="None" fill-opacity="0.0" stroke="#CFCFCF" stroke-opacity="1.00" stroke-width="0.3"><path d="
M 1216.00 720.00 
C 1216.00 727.24 1215.36 734.80 1216.00 742.00
C 1216.00 742.04 1217.00 742.00 1217.00 742.00
C 1217.41 737.51 1219.03 721.92 1216.00 719.00
C 1216.00 719.00 1216.00 719.50 1216.00 720.00 Z"/>
</g>
<g fill="None" fill-opacity="0.0" stroke="#373739" stroke-opacity="1.00" stroke-width="0.3"><path d="
M 1103.00 739.00 
C 1102.79 745.18 1103.28 751.87 1103.00 758.00 C 1102.72 764.13 1103.52 772.15 1103.00 778.00 C 1102.48 783.85 1104.17 791.96 1103.00 797.00 C 1101.83 802.04 1105.93 813.25 1102.00 816.00
C 1097.57 819.10 1086.66 814.84 1081.00 816.00 C 1075.34 817.16 1066.00 816.00 1060.00 816.00
C 1049.71 816.00 1037.05 816.73 1027.00 816.00 C 1016.95 815.27 1008.36 816.13 1003.75 824.75 C 999.15 833.37 992.92 833.62 989.00 842.00
C 985.33 854.25 990.59 869.12 989.00 882.00 C 987.41 894.88 989.58 908.79 989.00 922.00 C 988.42 935.21 989.00 949.68 989.00 963.00
C 997.45 963.00 1005.52 963.00 1014.00 963.00 C 1022.48 963.00 1031.50 963.00 1040.00 963.00 C 1048.50 963.00 1056.49 963.00 1065.00 963.00 C 1073.51 963.00 1082.49 963.01 1091.00 963.00 C 1099.51 962.99 1107.48 963.01 1116.00 963.00 C 1124.52 962.99 1133.47 963.02 1142.00 963.00 C 1150.53 962.98 1159.54 963.05 1168.00 963.00 C 1176.46 962.95 1184.66 963.12 1193.00 963.00 C 1201.34 962.88 1210.86 963.25 1219.00 963.00 C 1227.14 962.75 1236.36 963.57 1244.00 963.00 C 1251.64 962.43 1263.35 964.22 1270.00 963.00 C 1276.66 961.78 1291.06 966.56 1294.00 961.00
C 1294.00 921.67 1294.00 882.33 1294.00 843.00
C 1281.50 842.34 1267.68 844.33 1256.00 842.00
C 1251.45 837.45 1256.16 823.84 1255.00 817.00 C 1253.85 810.16 1255.00 798.30 1255.00 791.00
C 1255.00 775.00 1255.00 759.00 1255.00 743.00
C 1249.48 743.50 1240.25 743.57 1235.00 743.00 C 1229.75 742.43 1219.37 745.50 1216.00 742.00
C 1215.36 734.80 1216.00 727.24 1216.00 720.00
C 1210.71 720.47 1205.30 719.65 1200.00 720.00
C 1197.34 723.80 1203.67 736.15 1198.67 738.67 C 1193.67 741.19 1185.75 737.99 1180.00 739.00 C 1174.25 740.01 1167.01 738.35 1161.00 739.00 C 1154.99 739.65 1146.93 738.25 1141.00 739.00 C 1135.07 739.75 1127.41 737.59 1122.00 739.00 C 1116.59 740.41 1107.28 736.00 1103.00 739.00 Z"/>
</g>
<g fill="None" fill-opacity="0.0" stroke="#4F4E4E" stroke-opacity="1.00" stroke-width="0.3"><path d="
M 320.00 799.00 
C 315.77 803.96 308.39 808.99 306.00 815.00
C 303.21 826.45 307.43 839.17 306.00 851.00 C 304.57 862.83 307.08 876.05 306.00 888.00
C 319.00 887.98 332.00 888.02 345.00 888.00
C 345.00 958.34 345.00 1028.66 345.00 1099.00
C 355.00 1099.00 365.00 1099.00 375.00 1099.00
C 374.23 996.72 376.35 895.17 376.00 793.00
C 409.70 810.43 442.52 830.14 475.00 850.00
C 470.11 843.93 475.42 831.97 474.00 824.00 C 472.58 816.03 474.53 804.62 474.00 796.00 C 473.47 787.38 474.00 776.80 474.00 768.00
C 474.00 757.67 474.00 747.33 474.00 737.00
C 427.00 737.00 380.00 737.00 333.00 737.00
C 333.95 749.03 331.73 763.18 333.00 775.00 C 334.27 786.82 326.91 790.91 320.00 799.00 Z"/>
</g>
<g fill="None" fill-opacity="0.0" stroke="#B1B2B1" stroke-opacity="1.00" stroke-width="0.3"><path d="
M 474.00 768.00 
C 475.18 780.19 473.55 796.47 475.00 809.00 C 476.45 821.53 470.42 839.01 476.00 850.00
C 481.08 852.00 487.80 855.69 492.08 858.92 C 496.35 862.16 505.27 864.72 508.00 869.00
C 512.66 876.30 507.56 888.94 509.00 898.00 C 510.44 907.06 508.34 918.40 509.00 928.00 C 509.66 937.60 508.70 948.14 509.00 958.00 C 509.30 967.86 508.85 977.96 509.00 988.00 C 509.15 998.04 508.88 1008.89 509.00 1019.00
C 513.00 1019.00 517.00 1019.00 521.00 1019.00
C 520.93 1004.36 521.09 989.63 521.00 975.00 C 520.91 960.37 521.17 945.61 521.00 931.00 C 520.83 916.39 521.37 901.54 521.00 887.00 C 520.63 872.46 521.82 857.38 521.00 843.00 C 520.18 828.62 519.80 818.11 530.75 808.75 C 541.70 799.40 554.34 803.49 569.00 803.00 C 583.66 802.51 598.29 803.23 613.00 803.00 C 627.71 802.77 642.20 803.12 657.00 803.00 C 671.80 802.88 687.15 803.09 702.00 803.00
C 652.32 800.67 600.50 802.67 550.00 802.00
C 550.00 790.67 550.00 779.33 550.00 768.00
C 525.00 768.00 500.00 768.00 475.00 768.00
C 474.25 763.59 475.99 756.10 475.00 752.00 C 474.01 747.90 477.36 739.35 474.00 737.00
C 474.00 747.33 474.00 757.67 474.00 768.00 Z"/>
</g>
<g fill="None" fill-opacity="0.0" stroke="#818083" stroke-opacity="1.00" stroke-width="0.3"><path d="
M 1102.00 816.00 
C 1105.93 813.25 1101.83 802.04 1103.00 797.00 C 1104.17 791.96 1102.48 783.85 1103.00 778.00 C 1103.52 772.15 1102.72 764.13 1103.00 758.00 C 1103.28 751.87 1102.79 745.18 1103.00 739.00
C 1099.07 741.75 1103.17 752.96 1102.00 758.00 C 1100.83 763.04 1102.52 771.15 1102.00 777.00 C 1101.48 782.85 1102.28 790.87 1102.00 797.00 C 1101.72 803.13 1102.21 809.82 1102.00 816.00 Z"/>
</g>
<g fill="None" fill-opacity="0.0" stroke="#6D6C6E" stroke-opacity="1.00" stroke-width="0.3"><path d="
M 1255.00 743.00 
C 1255.00 742.50 1255.00 742.00 1255.00 742.00
C 1242.56 740.88 1229.49 742.00 1217.00 742.00
C 1217.00 742.00 1216.00 742.04 1216.00 742.00
C 1219.37 745.50 1229.75 742.43 1235.00 743.00 C 1240.25 743.57 1249.48 743.50 1255.00 743.00 Z"/>
</g>
<g fill="None" fill-opacity="0.0" stroke="#B1B2B1" stroke-opacity="1.00" stroke-width="0.3"><path d="
M 1255.00 743.00 
C 1255.00 759.00 1255.00 775.00 1255.00 791.00
C 1256.57 807.17 1255.91 825.10 1256.00 842.00
C 1269.00 842.00 1282.00 842.00 1295.00 842.00
C 1295.00 900.33 1295.00 958.67 1295.00 1017.00
C 1297.67 1017.00 1300.33 1017.00 1303.00 1017.00
C 1303.25 1009.65 1302.67 1001.24 1303.00 994.00 C 1303.33 986.76 1302.37 977.85 1303.00 971.00 C 1303.63 964.15 1301.65 953.91 1303.00 948.00 C 1304.35 942.09 1299.55 929.11 1304.00 926.00
C 1308.52 922.83 1318.25 927.44 1324.00 926.00 C 1329.75 924.56 1337.63 926.69 1344.00 926.00 C 1350.37 925.31 1358.39 926.46 1365.00 926.00 C 1371.61 925.54 1378.29 926.52 1385.00 926.00 C 1391.71 925.48 1399.29 926.89 1406.00 926.00
C 1409.00 924.75 1412.22 923.29 1415.00 922.00
C 1410.86 912.14 1413.65 897.43 1413.00 885.00 C 1412.35 872.57 1413.49 858.57 1413.00 846.00
C 1377.67 846.00 1342.33 846.00 1307.00 846.00
C 1307.00 827.66 1307.00 809.34 1307.00 791.00
C 1290.00 791.00 1273.00 791.00 1256.00 791.00
C 1254.73 783.92 1257.69 772.66 1256.00 766.00 C 1254.31 759.34 1259.70 746.52 1255.00 742.00
C 1255.00 742.00 1255.00 742.50 1255.00 743.00 Z"/>
</g>
<g fill="None" fill-opacity="0.0" stroke="#848484" stroke-opacity="1.00" stroke-width="0.3"><path d="
M 475.00 850.00 
C 475.32 850.24 476.00 850.00 476.00 850.00
C 470.42 839.01 476.45 821.53 475.00 809.00 C 473.55 796.47 475.18 780.19 474.00 768.00
C 474.00 776.80 473.47 787.38 474.00 796.00 C 474.53 804.62 472.58 816.03 474.00 824.00 C 475.42 831.97 470.11 843.93 475.00 850.00 Z"/>
</g>
<g fill="None" fill-opacity="0.0" stroke="#292D30" stroke-opacity="1.00" stroke-width="0.3"><path d="
M 1642.00 1016.00 
C 1631.20 1016.98 1619.85 1016.00 1609.00 1016.00
C 1567.00 1016.00 1525.00 1016.00 1483.00 1016.00
C 1482.99 1027.33 1483.01 1038.68 1483.00 1050.00 C 1482.99 1061.32 1483.02 1072.69 1483.00 1084.00 C 1482.98 1095.31 1483.04 1106.72 1483.00 1118.00 C 1482.97 1129.28 1483.08 1140.78 1483.00 1152.00 C 1482.92 1163.22 1483.18 1174.92 1483.00 1186.00 C 1482.82 1197.08 1483.39 1209.22 1483.00 1220.00 C 1482.61 1230.78 1483.87 1243.90 1483.00 1254.00 C 1482.13 1264.10 1487.86 1280.79 1476.00 1281.00 C 1464.14 1281.21 1453.73 1280.85 1442.00 1281.00
C 1441.34 1162.76 1443.33 1043.79 1441.00 926.00
C 1440.72 923.00 1442.62 913.60 1440.00 912.00
C 1433.47 911.70 1420.95 919.25 1415.00 922.00
C 1412.22 923.29 1409.00 924.75 1406.00 926.00
C 1405.74 926.11 1405.28 926.77 1405.00 927.00
C 1394.42 935.64 1378.08 937.12 1365.98 943.98 C 1353.87 950.83 1338.88 955.89 1326.00 961.00
C 1326.03 972.71 1325.97 984.27 1326.00 996.00 C 1326.03 1007.73 1325.93 1019.21 1326.00 1031.00 C 1326.07 1042.79 1325.86 1054.08 1326.00 1066.00 C 1326.14 1077.92 1325.68 1088.77 1326.00 1101.00 C 1326.32 1113.23 1325.29 1123.08 1326.00 1136.00 C 1326.71 1148.92 1324.44 1156.56 1326.00 1171.00 C 1327.56 1185.44 1316.42 1182.81 1303.00 1183.00 C 1289.58 1183.19 1294.42 1168.32 1294.00 1157.00 C 1293.58 1145.68 1294.19 1133.51 1294.00 1122.00 C 1293.81 1110.49 1294.09 1098.59 1294.00 1087.00 C 1293.91 1075.41 1294.05 1063.63 1294.00 1052.00 C 1293.95 1040.37 1294.03 1028.64 1294.00 1017.00
C 1294.00 998.33 1294.00 979.67 1294.00 961.00
C 1291.06 966.56 1276.66 961.78 1270.00 963.00 C 1263.35 964.22 1251.64 962.43 1244.00 963.00 C 1236.36 963.57 1227.14 962.75 1219.00 963.00 C 1210.86 963.25 1201.34 962.88 1193.00 963.00 C 1184.66 963.12 1176.46 962.95 1168.00 963.00 C 1159.54 963.05 1150.53 962.98 1142.00 963.00 C 1133.47 963.02 1124.52 962.99 1116.00 963.00 C 1107.48 963.01 1099.51 962.99 1091.00 963.00 C 1082.49 963.01 1073.51 963.00 1065.00 963.00 C 1056.49 963.00 1048.50 963.00 1040.00 963.00 C 1031.50 963.00 1022.48 963.00 1014.00 963.00 C 1005.52 963.00 997.45 963.00 989.00 963.00
C 989.00 994.33 989.00 1025.67 989.00 1057.00
C 989.00 1090.67 989.00 1124.33 989.00 1158.00
C 963.00 1158.00 937.00 1158.00 911.00 1158.00
C 912.94 1143.31 908.41 1127.59 911.00 1113.00 C 913.59 1098.41 907.50 1089.58 896.75 1082.25 C 886.00 1074.92 881.83 1068.25 872.00 1061.00
C 867.92 1057.92 862.52 1055.77 862.00 1050.00 C 861.48 1044.23 862.26 1035.43 862.00 1029.00 C 861.74 1022.57 862.17 1014.71 862.00 1008.00 C 861.83 1001.29 862.18 993.79 862.00 987.00 C 861.82 980.21 862.32 972.74 862.00 966.00 C 861.68 959.26 862.68 951.51 862.00 945.00 C 861.32 938.49 863.49 929.95 862.00 924.00 C 860.51 918.05 865.29 907.69 862.00 903.00
C 805.40 902.41 748.19 904.23 692.00 902.00
C 692.00 943.33 692.00 984.67 692.00 1026.00
C 680.94 1026.24 667.86 1025.69 657.00 1026.00 C 646.14 1026.31 628.97 1021.85 630.00 1035.00 C 631.03 1048.15 629.51 1058.86 630.00 1071.00 C 630.49 1083.14 629.72 1095.78 630.00 1107.00 C 630.28 1118.22 632.09 1130.39 624.25 1137.25 C 616.41 1144.11 612.61 1147.14 605.75 1153.75 C 598.89 1160.36 593.92 1164.73 587.25 1171.25 C 580.58 1177.76 575.70 1182.09 568.75 1188.75 C 561.80 1195.41 556.08 1202.71 545.00 1201.00 C 533.92 1199.29 520.31 1202.28 509.00 1201.00
C 509.00 1140.34 509.00 1079.66 509.00 1019.00
C 508.12 1009.95 507.87 999.80 508.00 990.00 C 508.13 980.20 508.23 969.81 508.00 960.00 C 507.77 950.19 508.73 939.69 508.00 930.00 C 507.27 920.31 509.71 909.37 508.00 900.00 C 506.29 890.63 511.70 877.57 508.00 869.00
C 505.27 864.72 496.35 862.16 492.08 858.92 C 487.80 855.69 481.08 852.00 476.00 850.00
C 476.00 850.00 475.32 850.24 475.00 850.00
C 442.52 830.14 409.70 810.43 376.00 793.00
C 376.35 895.17 374.23 996.72 375.00 1099.00
C 365.00 1099.00 355.00 1099.00 345.00 1099.00
C 345.00 1028.66 345.00 958.34 345.00 888.00
C 332.00 888.02 319.00 887.98 306.00 888.00
C 305.50 888.00 305.00 888.00 305.00 888.00
C 291.67 888.00 278.33 888.00 265.00 888.00
C 261.67 888.00 258.33 887.99 255.00 888.00
C 254.50 888.00 254.00 888.00 254.00 888.00
C 232.00 888.00 210.00 888.00 188.00 888.00
C 188.68 912.92 187.04 937.26 187.00 962.00
C 163.00 962.00 139.00 962.00 115.00 962.00
C 115.00 1079.34 115.00 1196.66 115.00 1314.00
C 104.67 1314.00 94.33 1314.00 84.00 1314.00
C 84.00 1263.00 84.00 1212.00 84.00 1161.00
C 56.00 1161.00 28.00 1161.00 0.00 1161.00
L 0.00 1338.00
L 1913.00 1338.00
L 1913.00 1111.00
C 1899.57 1101.35 1889.93 1093.30 1877.25 1081.75 C 1864.56 1070.20 1848.06 1063.32 1850.00 1043.00 C 1851.94 1022.68 1849.24 998.15 1850.00 977.00 C 1850.76 955.85 1849.91 932.42 1850.00 911.00 C 1850.09 889.58 1850.97 866.99 1849.00 846.00
C 1848.42 839.79 1849.00 833.24 1849.00 827.00
C 1829.04 828.75 1806.58 827.84 1787.00 826.00
C 1773.46 827.21 1758.17 827.23 1749.25 816.75 C 1740.32 806.27 1732.98 805.35 1723.75 795.25 C 1714.52 785.15 1703.58 781.16 1689.00 783.00 C 1674.42 784.84 1657.47 781.34 1643.00 784.00
C 1642.99 792.66 1643.01 801.34 1643.00 810.00 C 1642.99 818.66 1643.01 827.35 1643.00 836.00 C 1642.99 844.65 1643.03 853.36 1643.00 862.00 C 1642.97 870.64 1643.06 879.40 1643.00 888.00 C 1642.94 896.60 1643.13 905.48 1643.00 914.00 C 1642.87 922.53 1643.29 931.65 1643.00 940.00 C 1642.71 948.35 1643.64 958.03 1643.00 966.00 C 1642.36 973.97 1644.42 984.87 1643.00 992.00 C 1641.58 999.13 1646.77 1011.41 1642.00 1016.00 Z"/>
</g>
<g fill="None" fill-opacity="0.0" stroke="#7D7D7D" stroke-opacity="1.00" stroke-width="0.3"><path d="
M 1256.00 842.00 
C 1255.91 825.10 1256.57 807.17 1255.00 791.00
C 1255.00 798.30 1253.85 810.16 1255.00 817.00 C 1256.16 823.84 1251.45 837.45 1256.00 842.00 Z"/>
</g>
<g fill="None" fill-opacity="0.0" stroke="#B1B2B1" stroke-opacity="1.00" stroke-width="0.3"><path d="
M 265.00 888.00 
C 278.33 888.00 291.67 888.00 305.00 888.00
C 303.96 876.51 304.45 862.39 305.00 851.00 C 305.55 839.61 302.03 824.99 306.00 815.00
C 308.39 808.99 315.77 803.96 320.00 799.00
C 313.96 807.05 305.37 804.93 296.00 805.00 C 286.63 805.07 275.52 804.95 266.00 805.00
C 265.77 811.70 266.31 819.40 266.00 826.00 C 265.69 832.60 266.60 840.77 266.00 847.00 C 265.40 853.23 267.28 862.65 266.00 868.00 C 264.72 873.35 269.30 884.96 265.00 888.00 Z"/>
</g>
<g fill="None" fill-opacity="0.0" stroke="#4B494A" stroke-opacity="1.00" stroke-width="0.3"><path d="
M 509.00 1019.00 
C 509.00 1079.66 509.00 1140.34 509.00 1201.00
C 520.31 1202.28 533.92 1199.29 545.00 1201.00 C 556.08 1202.71 561.80 1195.41 568.75 1188.75 C 575.70 1182.09 580.58 1177.76 587.25 1171.25 C 593.92 1164.73 598.89 1160.36 605.75 1153.75 C 612.61 1147.14 616.41 1144.11 624.25 1137.25 C 632.09 1130.39 630.28 1118.22 630.00 1107.00 C 629.72 1095.78 630.49 1083.14 630.00 1071.00 C 629.51 1058.86 631.03 1048.15 630.00 1035.00 C 628.97 1021.85 646.14 1026.31 657.00 1026.00 C 667.86 1025.69 680.94 1026.24 692.00 1026.00
C 692.00 984.67 692.00 943.33 692.00 902.00
C 748.19 904.23 805.40 902.41 862.00 903.00
C 859.15 898.93 847.23 903.25 842.00 902.00 C 836.77 900.75 828.02 902.58 822.00 902.00 C 815.98 901.42 808.38 902.29 802.00 902.00 C 795.62 901.71 788.55 902.21 782.00 902.00 C 775.45 901.79 767.52 902.26 761.00 902.00 C 754.48 901.74 747.24 902.50 741.00 902.00 C 734.76 901.50 726.67 903.07 721.00 902.00 C 715.33 900.93 705.83 904.83 702.00 901.00
C 697.33 896.33 702.52 883.91 701.00 877.00 C 699.48 870.09 701.85 859.59 701.00 852.00 C 700.15 844.41 701.33 833.96 702.00 827.00
C 702.32 823.71 702.52 818.15 702.00 815.00 C 701.48 811.85 703.71 805.44 702.00 803.00
C 687.15 803.09 671.80 802.88 657.00 803.00 C 642.20 803.12 627.71 802.77 613.00 803.00 C 598.29 803.23 583.66 802.51 569.00 803.00 C 554.34 803.49 541.70 799.40 530.75 808.75 C 519.80 818.11 520.18 828.62 521.00 843.00 C 521.82 857.38 520.63 872.46 521.00 887.00 C 521.37 901.54 520.83 916.39 521.00 931.00 C 521.17 945.61 520.91 960.37 521.00 975.00 C 521.09 989.63 520.93 1004.36 521.00 1019.00
C 517.00 1019.00 513.00 1019.00 509.00 1019.00 Z"/>
</g>
<g fill="None" fill-opacity="0.0" stroke="#717071" stroke-opacity="1.00" stroke-width="0.3"><path d="
M 305.00 888.00 
C 305.00 888.00 305.50 888.00 306.00 888.00
C 307.08 876.05 304.57 862.83 306.00 851.00 C 307.43 839.17 303.21 826.45 306.00 815.00
C 302.03 824.99 305.55 839.61 305.00 851.00 C 304.45 862.39 303.96 876.51 305.00 888.00 Z"/>
</g>
<g fill="None" fill-opacity="0.0" stroke="#7C7C7C" stroke-opacity="1.00" stroke-width="0.3"><path d="
M 1849.00 827.00 
C 1849.00 833.24 1848.42 839.79 1849.00 846.00
C 1852.09 850.37 1863.44 845.72 1869.00 847.00 C 1874.56 848.28 1884.60 846.33 1891.00 847.00 C 1897.40 847.67 1906.36 846.50 1913.00 847.00
L 1913.00 846.00
C 1892.00 846.00 1871.00 846.00 1850.00 846.00
C 1848.04 840.87 1853.06 829.92 1849.00 826.00
C 1849.00 826.00 1849.00 826.50 1849.00 827.00 Z"/>
</g>
<g fill="None" fill-opacity="0.0" stroke="#676767" stroke-opacity="1.00" stroke-width="0.3"><path d="
M 702.00 901.00 
C 699.07 896.82 703.40 887.22 702.00 882.00 C 700.60 876.78 702.62 869.74 702.00 864.00 C 701.38 858.26 702.34 850.92 702.00 845.00 C 701.66 839.08 702.25 832.94 702.00 827.00
C 701.33 833.96 700.15 844.41 701.00 852.00 C 701.85 859.59 699.48 870.09 701.00 877.00 C 702.52 883.91 697.33 896.33 702.00 901.00 Z"/>
</g>
<g fill="None" fill-opacity="0.0" stroke="#6F6F71" stroke-opacity="1.00" stroke-width="0.3"><path d="
M 960.00 1057.00 
C 961.62 1059.31 971.05 1058.22 974.00 1058.00 C 976.95 1057.78 987.09 1059.71 989.00 1057.00
C 989.00 1025.67 989.00 994.33 989.00 963.00
C 989.00 949.68 988.42 935.21 989.00 922.00 C 989.58 908.79 987.41 894.88 989.00 882.00 C 990.59 869.12 985.33 854.25 989.00 842.00
C 986.67 912.68 988.67 985.50 988.00 1057.00
C 978.67 1057.00 969.33 1057.00 960.00 1057.00 Z"/>
</g>
<g fill="None" fill-opacity="0.0" stroke="#686769" stroke-opacity="1.00" stroke-width="0.3"><path d="
M 1294.00 961.00 
C 1294.00 979.67 1294.00 998.33 1294.00 1017.00
C 1297.98 1022.63 1307.31 1016.35 1305.00 1010.00 C 1302.69 1003.65 1306.10 995.63 1305.00 989.00 C 1303.90 982.37 1305.48 975.79 1305.00 969.00 C 1304.52 962.21 1305.25 954.89 1305.00 948.00 C 1304.75 941.11 1305.19 933.92 1305.00 927.00
C 1338.34 927.00 1371.67 927.00 1405.00 927.00
C 1405.28 926.77 1405.74 926.11 1406.00 926.00
C 1399.29 926.89 1391.71 925.48 1385.00 926.00 C 1378.29 926.52 1371.61 925.54 1365.00 926.00 C 1358.39 926.46 1350.37 925.31 1344.00 926.00 C 1337.63 926.69 1329.75 924.56 1324.00 926.00 C 1318.25 927.44 1308.52 922.83 1304.00 926.00
C 1303.75 933.35 1304.33 941.76 1304.00 949.00 C 1303.67 956.24 1304.63 965.15 1304.00 972.00 C 1303.37 978.85 1305.35 989.09 1304.00 995.00 C 1302.65 1000.91 1307.45 1013.89 1303.00 1017.00
C 1300.33 1017.00 1297.67 1017.00 1295.00 1017.00
C 1295.00 958.67 1295.00 900.33 1295.00 842.00
C 1282.00 842.00 1269.00 842.00 1256.00 842.00
C 1267.68 844.33 1281.50 842.34 1294.00 843.00
C 1294.00 882.33 1294.00 921.67 1294.00 961.00 Z"/>
</g>
<g fill="None" fill-opacity="0.0" stroke="#4B494A" stroke-opacity="1.00" stroke-width="0.3"><path d="
M 1913.00 1111.00 
L 1913.00 847.00
C 1906.36 846.50 1897.40 847.67 1891.00 847.00 C 1884.60 846.33 1874.56 848.28 1869.00 847.00 C 1863.44 845.72 1852.09 850.37 1849.00 846.00
C 1850.97 866.99 1850.09 889.58 1850.00 911.00 C 1849.91 932.42 1850.76 955.85 1850.00 977.00 C 1849.24 998.15 1851.94 1022.68 1850.00 1043.00 C 1848.06 1063.32 1864.56 1070.20 1877.25 1081.75 C 1889.93 1093.30 1899.57 1101.35 1913.00 1111.00 Z"/>
</g>
<g fill="None" fill-opacity="0.0" stroke="#7E7E7F" stroke-opacity="1.00" stroke-width="0.3"><path d="
M 509.00 1019.00 
C 508.88 1008.89 509.15 998.04 509.00 988.00 C 508.85 977.96 509.30 967.86 509.00 958.00 C 508.70 948.14 509.66 937.60 509.00 928.00 C 508.34 918.40 510.44 907.06 509.00 898.00 C 507.56 888.94 512.66 876.30 508.00 869.00
C 511.70 877.57 506.29 890.63 508.00 900.00 C 509.71 909.37 507.27 920.31 508.00 930.00 C 508.73 939.69 507.77 950.19 508.00 960.00 C 508.23 969.81 508.13 980.20 508.00 990.00 C 507.87 999.80 508.12 1009.95 509.00 1019.00 Z"/>
</g>
<g fill="None" fill-opacity="0.0" stroke="#706D70" stroke-opacity="1.00" stroke-width="0.3"><path d="
M 83.00 882.00 
C 96.73 867.72 114.84 873.74 134.00 873.00 C 153.16 872.26 174.44 873.39 194.00 873.00 C 213.56 872.61 234.33 873.29 254.00 873.00
C 254.00 878.00 254.00 883.00 254.00 888.00
C 254.00 888.00 254.50 888.00 255.00 888.00
C 255.00 882.67 255.00 877.33 255.00 872.00
C 230.67 872.00 206.33 872.00 182.00 872.00
C 164.20 872.00 144.62 871.85 127.00 872.00 C 109.38 872.15 94.67 867.77 83.00 882.00 Z"/>
</g>
<g fill="None" fill-opacity="0.0" stroke="#484648" stroke-opacity="1.00" stroke-width="0.3"><path d="
M 83.00 882.00 
C 82.01 883.21 80.95 884.68 80.00 886.00
C 74.23 893.99 65.48 897.35 65.00 908.00 C 64.52 918.65 65.36 934.85 65.00 946.00
C 43.33 946.00 21.67 946.00 0.00 946.00
L 0.00 1161.00
C 28.00 1161.00 56.00 1161.00 84.00 1161.00
C 84.00 1212.00 84.00 1263.00 84.00 1314.00
C 94.33 1314.00 104.67 1314.00 115.00 1314.00
C 115.00 1196.66 115.00 1079.34 115.00 962.00
C 139.00 962.00 163.00 962.00 187.00 962.00
C 187.04 937.26 188.68 912.92 188.00 888.00
C 210.00 888.00 232.00 888.00 254.00 888.00
C 254.00 883.00 254.00 878.00 254.00 873.00
C 234.33 873.29 213.56 872.61 194.00 873.00 C 174.44 873.39 153.16 872.26 134.00 873.00 C 114.84 873.74 96.73 867.72 83.00 882.00 Z"/>
</g>
<g fill="None" fill-opacity="0.0" stroke="#797979" stroke-opacity="1.00" stroke-width="0.3"><path d="
M 0.00 945.00 
L 0.00 946.00
C 21.67 946.00 43.33 946.00 65.00 946.00
C 65.36 934.85 64.52 918.65 65.00 908.00 C 65.48 897.35 74.23 893.99 80.00 886.00
C 74.48 893.81 63.89 897.12 64.00 908.00 C 64.11 918.88 63.92 933.76 64.00 945.00
C 42.67 945.00 21.33 945.00 0.00 945.00 Z"/>
</g>
<g fill="None" fill-opacity="0.0" stroke="#767374" stroke-opacity="1.00" stroke-width="0.3"><path d="
M 1440.00 912.00 
C 1442.62 913.60 1440.72 923.00 1441.00 926.00
C 1444.04 930.30 1455.64 925.73 1461.00 927.00 C 1466.36 928.27 1475.74 926.43 1482.00 927.00 C 1488.26 927.57 1496.33 926.75 1503.00 927.00 C 1509.67 927.25 1517.14 926.91 1524.00 927.00 C 1530.86 927.09 1538.05 927.01 1545.00 927.00 C 1551.96 926.99 1558.98 927.11 1566.00 927.00 C 1573.02 926.89 1579.90 927.29 1587.00 927.00 C 1594.10 926.71 1601.88 927.63 1609.00 927.00
C 1609.00 926.50 1609.00 926.00 1609.00 926.00
C 1583.70 923.71 1557.38 926.87 1532.00 926.00 C 1506.62 925.13 1481.37 926.00 1456.00 926.00
C 1451.34 926.00 1446.67 926.00 1442.00 926.00
C 1441.09 921.33 1444.07 912.19 1440.00 912.00 Z"/>
</g>
<g fill="None" fill-opacity="0.0" stroke="#999999" stroke-opacity="1.00" stroke-width="0.3"><path d="
M 875.00 1063.00 
C 876.47 1063.29 875.98 1051.49 876.00 1047.00 C 876.02 1042.51 875.97 1033.49 876.00 1028.00 C 876.03 1022.51 875.94 1014.92 876.00 1009.00 C 876.06 1003.08 875.88 996.08 876.00 990.00 C 876.12 983.92 875.73 977.07 876.00 971.00 C 876.27 964.93 875.40 957.87 876.00 952.00 C 876.60 946.13 874.66 938.38 876.00 933.00 C 877.34 927.62 873.03 918.24 876.00 914.00
C 878.88 909.89 890.57 914.13 896.00 913.00 C 901.43 911.87 910.69 913.38 917.00 913.00 C 923.31 912.62 931.26 912.89 938.00 913.00 C 944.74 913.11 953.16 912.38 960.00 913.00
C 955.05 907.89 941.49 913.82 934.00 912.00 C 926.51 910.18 916.61 913.09 908.00 912.00 C 899.39 910.91 891.69 913.07 882.00 912.00 C 872.31 910.93 874.95 923.98 875.00 932.00 C 875.05 940.02 874.89 949.61 875.00 958.00 C 875.11 966.39 874.76 975.44 875.00 984.00 C 875.24 992.56 874.50 1002.46 875.00 1011.00 C 875.50 1019.54 873.85 1028.69 875.00 1037.00 C 876.15 1045.31 872.44 1055.16 875.00 1063.00 Z"/>
</g>
<g fill="None" fill-opacity="0.0" stroke="#646464" stroke-opacity="1.00" stroke-width="0.3"><path d="
M 876.00 914.00 
C 903.84 912.18 932.21 916.42 960.00 914.00
C 960.00 914.00 960.25 913.26 960.00 913.00
C 953.16 912.38 944.74 913.11 938.00 913.00 C 931.26 912.89 923.31 912.62 917.00 913.00 C 910.69 913.38 901.43 911.87 896.00 913.00 C 890.57 914.13 878.88 909.89 876.00 914.00 Z"/>
</g>
<g fill="None" fill-opacity="0.0" stroke="#484748" stroke-opacity="1.00" stroke-width="0.3"><path d="
M 875.00 1063.00 
C 874.01 1062.80 872.81 1061.61 872.00 1061.00
C 881.83 1068.25 886.00 1074.92 896.75 1082.25 C 907.50 1089.58 913.59 1098.41 911.00 1113.00 C 908.41 1127.59 912.94 1143.31 911.00 1158.00
C 937.00 1158.00 963.00 1158.00 989.00 1158.00
C 989.00 1124.33 989.00 1090.67 989.00 1057.00
C 987.09 1059.71 976.95 1057.78 974.00 1058.00 C 971.05 1058.22 961.62 1059.31 960.00 1057.00
C 956.76 1052.37 961.53 1041.80 960.00 1036.00 C 958.47 1030.20 960.66 1022.39 960.00 1016.00 C 959.34 1009.61 960.31 1001.62 960.00 995.00 C 959.69 988.38 960.13 981.73 960.00 975.00 C 959.87 968.27 960.06 960.75 960.00 954.00 C 959.94 947.25 960.02 940.71 960.00 934.00 C 959.98 927.29 960.00 920.70 960.00 914.00
C 932.21 916.42 903.84 912.18 876.00 914.00
C 873.03 918.24 877.34 927.62 876.00 933.00 C 874.66 938.38 876.60 946.13 876.00 952.00 C 875.40 957.87 876.27 964.93 876.00 971.00 C 875.73 977.07 876.12 983.92 876.00 990.00 C 875.88 996.08 876.06 1003.08 876.00 1009.00 C 875.94 1014.92 876.03 1022.51 876.00 1028.00 C 875.97 1033.49 876.02 1042.51 876.00 1047.00 C 875.98 1051.49 876.47 1063.29 875.00 1063.00 Z"/>
</g>
<g fill="None" fill-opacity="0.0" stroke="#919191" stroke-opacity="1.00" stroke-width="0.3"><path d="
M 1303.00 1017.00 
C 1307.45 1013.89 1302.65 1000.91 1304.00 995.00 C 1305.35 989.09 1303.37 978.85 1304.00 972.00 C 1304.63 965.15 1303.67 956.24 1304.00 949.00 C 1304.33 941.76 1303.75 933.35 1304.00 926.00
C 1299.55 929.11 1304.35 942.09 1303.00 948.00 C 1301.65 953.91 1303.63 964.15 1303.00 971.00 C 1302.37 977.85 1303.33 986.76 1303.00 994.00 C 1302.67 1001.24 1303.25 1009.65 1303.00 1017.00 Z"/>
</g>
<g fill="None" fill-opacity="0.0" stroke="#484648" stroke-opacity="1.00" stroke-width="0.3"><path d="
M 1609.00 1016.00 
C 1609.00 986.33 1609.01 956.67 1609.00 927.00
C 1601.88 927.63 1594.10 926.71 1587.00 927.00 C 1579.90 927.29 1573.02 926.89 1566.00 927.00 C 1558.98 927.11 1551.96 926.99 1545.00 927.00 C 1538.05 927.01 1530.86 927.09 1524.00 927.00 C 1517.14 926.91 1509.67 927.25 1503.00 927.00 C 1496.33 926.75 1488.26 927.57 1482.00 927.00 C 1475.74 926.43 1466.36 928.27 1461.00 927.00 C 1455.64 925.73 1444.04 930.30 1441.00 926.00
C 1443.33 1043.79 1441.34 1162.76 1442.00 1281.00
C 1453.73 1280.85 1464.14 1281.21 1476.00 1281.00 C 1487.86 1280.79 1482.13 1264.10 1483.00 1254.00 C 1483.87 1243.90 1482.61 1230.78 1483.00 1220.00 C 1483.39 1209.22 1482.82 1197.08 1483.00 1186.00 C 1483.18 1174.92 1482.92 1163.22 1483.00 1152.00 C 1483.08 1140.78 1482.97 1129.28 1483.00 1118.00 C 1483.04 1106.72 1482.98 1095.31 1483.00 1084.00 C 1483.02 1072.69 1482.99 1061.32 1483.00 1050.00 C 1483.01 1038.68 1482.99 1027.33 1483.00 1016.00
C 1525.00 1016.00 1567.00 1016.00 1609.00 1016.00 Z"/>
</g>
<g fill="None" fill-opacity="0.0" stroke="#979798" stroke-opacity="1.00" stroke-width="0.3"><path d="
M 1609.00 927.00 
C 1609.01 956.67 1609.00 986.33 1609.00 1016.00
C 1619.85 1016.00 1631.20 1016.98 1642.00 1016.00
C 1642.00 1016.00 1642.00 1015.50 1642.00 1015.00
C 1631.33 1015.00 1620.67 1015.00 1610.00 1015.00
C 1609.78 1007.65 1610.29 999.25 1610.00 992.00 C 1609.71 984.75 1610.58 976.94 1610.00 970.00 C 1609.42 963.06 1611.21 953.31 1610.00 947.00 C 1608.79 940.69 1613.24 930.11 1609.00 926.00
C 1609.00 926.00 1609.00 926.50 1609.00 927.00 Z"/>
</g>
<g fill="None" fill-opacity="0.0" stroke="#484647" stroke-opacity="1.00" stroke-width="0.3"><path d="
M 1294.00 1017.00 
C 1294.03 1028.64 1293.95 1040.37 1294.00 1052.00 C 1294.05 1063.63 1293.91 1075.41 1294.00 1087.00 C 1294.09 1098.59 1293.81 1110.49 1294.00 1122.00 C 1294.19 1133.51 1293.58 1145.68 1294.00 1157.00 C 1294.42 1168.32 1289.58 1183.19 1303.00 1183.00 C 1316.42 1182.81 1327.56 1185.44 1326.00 1171.00 C 1324.44 1156.56 1326.71 1148.92 1326.00 1136.00 C 1325.29 1123.08 1326.32 1113.23 1326.00 1101.00 C 1325.68 1088.77 1326.14 1077.92 1326.00 1066.00 C 1325.86 1054.08 1326.07 1042.79 1326.00 1031.00 C 1325.93 1019.21 1326.03 1007.73 1326.00 996.00 C 1325.97 984.27 1326.03 972.71 1326.00 961.00
C 1338.88 955.89 1353.87 950.83 1365.98 943.98 C 1378.08 937.12 1394.42 935.64 1405.00 927.00
C 1371.67 927.00 1338.34 927.00 1305.00 927.00
C 1305.19 933.92 1304.75 941.11 1305.00 948.00 C 1305.25 954.89 1304.52 962.21 1305.00 969.00 C 1305.48 975.79 1303.90 982.37 1305.00 989.00 C 1306.10 995.63 1302.69 1003.65 1305.00 1010.00 C 1307.31 1016.35 1297.98 1022.63 1294.00 1017.00 Z"/>
</g>
<g fill="#FEFEFE" fill-opacity="1.00" stroke="None">
<path d="
M 0.00 710.00 
C 37.00 710.00 74.00 710.00 111.00 710.00
C 111.00 729.00 111.00 748.00 111.00 767.00
C 134.54 772.76 158.13 778.41 182.00 783.00
C 182.00 812.67 182.00 842.33 182.00 872.00
C 206.33 872.00 230.67 872.00 255.00 872.00
C 255.00 877.33 255.00 882.67 255.00 888.00
C 258.33 887.99 261.67 888.00 265.00 888.00
C 269.30 884.96 264.72 873.35 266.00 868.00 C 267.28 862.65 265.40 853.23 266.00 847.00 C 266.60 840.77 265.69 832.60 266.00 826.00 C 266.31 819.40 265.77 811.70 266.00 805.00
C 275.52 804.95 286.63 805.07 296.00 805.00 C 305.37 804.93 313.96 807.05 320.00 799.00
C 326.91 790.91 334.27 786.82 333.00 775.00 C 331.73 763.18 333.95 749.03 333.00 737.00
C 380.00 737.00 427.00 737.00 474.00 737.00
C 477.36 739.35 474.01 747.90 475.00 752.00 C 475.99 756.10 474.25 763.59 475.00 768.00
C 500.00 768.00 525.00 768.00 550.00 768.00
C 550.00 779.33 550.00 790.67 550.00 802.00
C 600.50 802.67 652.32 800.67 702.00 803.00
C 703.71 805.44 701.48 811.85 702.00 815.00 C 702.52 818.15 702.32 823.71 702.00 827.00
C 726.33 827.00 750.67 827.00 775.00 827.00
C 774.36 815.94 775.85 805.07 775.00 794.00 C 774.15 782.93 784.45 783.27 792.08 778.08 C 799.71 772.90 806.66 769.01 817.00 770.00 C 827.34 770.99 839.25 769.54 850.00 770.00 C 860.75 770.46 872.02 769.77 883.00 770.00 C 893.98 770.23 905.93 769.82 917.00 770.00
C 917.00 746.00 917.00 722.00 917.00 698.00
C 964.34 698.00 1011.66 698.00 1059.00 698.00
C 1059.67 737.25 1057.67 777.20 1060.00 816.00
C 1066.00 816.00 1075.34 817.16 1081.00 816.00 C 1086.66 814.84 1097.57 819.10 1102.00 816.00
C 1102.21 809.82 1101.72 803.13 1102.00 797.00 C 1102.28 790.87 1101.48 782.85 1102.00 777.00 C 1102.52 771.15 1100.83 763.04 1102.00 758.00 C 1103.17 752.96 1099.07 741.75 1103.00 739.00
C 1107.28 736.00 1116.59 740.41 1122.00 739.00 C 1127.41 737.59 1135.07 739.75 1141.00 739.00 C 1146.93 738.25 1154.99 739.65 1161.00 739.00 C 1167.01 738.35 1174.25 740.01 1180.00 739.00 C 1185.75 737.99 1193.67 741.19 1198.67 738.67 C 1203.67 736.15 1197.34 723.80 1200.00 720.00
C 1201.68 717.60 1212.98 718.73 1216.00 719.00
C 1219.03 721.92 1217.41 737.51 1217.00 742.00
C 1229.49 742.00 1242.56 740.88 1255.00 742.00
C 1259.70 746.52 1254.31 759.34 1256.00 766.00 C 1257.69 772.66 1254.73 783.92 1256.00 791.00
C 1273.00 791.00 1290.00 791.00 1307.00 791.00
C 1307.00 809.34 1307.00 827.66 1307.00 846.00
C 1342.33 846.00 1377.67 846.00 1413.00 846.00
C 1413.49 858.57 1412.35 872.57 1413.00 885.00 C 1413.65 897.43 1410.86 912.14 1415.00 922.00
C 1420.95 919.25 1433.47 911.70 1440.00 912.00
C 1444.07 912.19 1441.09 921.33 1442.00 926.00
C 1446.67 926.00 1451.34 926.00 1456.00 926.00
C 1456.00 916.00 1456.00 906.00 1456.00 896.00
C 1468.00 896.00 1480.00 896.00 1492.00 896.00
C 1492.00 877.00 1492.00 858.00 1492.00 839.00
C 1507.66 839.00 1523.34 839.00 1539.00 839.00
C 1538.99 758.00 1539.00 677.00 1539.00 596.00
C 1553.02 596.05 1566.98 595.93 1581.00 596.00 C 1595.02 596.07 1610.06 595.86 1624.00 596.00 C 1637.94 596.14 1652.32 595.70 1666.00 596.00 C 1679.68 596.30 1695.89 595.36 1709.00 596.00 C 1722.11 596.64 1741.77 590.51 1741.00 606.00 C 1740.23 621.49 1741.40 634.06 1741.00 649.00 C 1740.60 663.94 1741.30 677.21 1741.00 692.00
C 1793.00 692.00 1845.00 692.00 1897.00 692.00
C 1897.00 722.00 1897.00 752.00 1897.00 782.00
C 1902.55 783.95 1907.44 787.74 1913.00 790.00
L 1913.00 0.00
L 0.00 0.00
L 0.00 710.00 Z"/>
</g>
<g fill="#B2B3B2" fill-opacity="1.00" stroke="None">
<path d="
M 1456.00 926.00 
C 1481.37 926.00 1506.62 925.13 1532.00 926.00 C 1557.38 926.87 1583.70 923.71 1609.00 926.00
C 1613.24 930.11 1608.79 940.69 1610.00 947.00 C 1611.21 953.31 1609.42 963.06 1610.00 970.00 C 1610.58 976.94 1609.71 984.75 1610.00 992.00 C 1610.29 999.25 1609.78 1007.65 1610.00 1015.00
C 1620.67 1015.00 1631.33 1015.00 1642.00 1015.00
C 1641.98 1008.00 1642.01 1001.00 1642.00 994.00 C 1641.99 987.00 1642.00 980.00 1642.00 973.00 C 1642.00 966.00 1642.00 959.00 1642.00 952.00 C 1642.00 945.00 1641.99 937.99 1642.00 931.00 C 1642.01 924.01 1641.97 916.98 1642.00 910.00 C 1642.03 903.02 1641.93 895.96 1642.00 889.00 C 1642.07 882.04 1641.85 874.91 1642.00 868.00 C 1642.15 861.09 1641.67 853.80 1642.00 847.00 C 1642.33 840.20 1641.28 832.56 1642.00 826.00 C 1642.72 819.44 1640.39 811.02 1642.00 805.00 C 1643.61 798.98 1638.62 787.83 1642.00 783.00
C 1643.54 780.80 1647.66 782.60 1650.00 782.00
C 1650.24 768.64 1649.69 753.14 1650.00 740.00 C 1650.31 726.86 1645.13 707.52 1661.00 709.00 C 1676.87 710.48 1689.08 708.20 1704.00 709.00 C 1718.92 709.80 1731.58 708.38 1746.00 709.00 C 1760.42 709.62 1774.55 707.70 1788.00 710.00
C 1791.49 748.35 1785.38 787.57 1788.00 826.00
C 1808.33 826.00 1828.67 826.00 1849.00 826.00
C 1853.06 829.92 1848.04 840.87 1850.00 846.00
C 1871.00 846.00 1892.00 846.00 1913.00 846.00
L 1913.00 790.00
C 1907.44 787.74 1902.55 783.95 1897.00 782.00
C 1897.00 752.00 1897.00 722.00 1897.00 692.00
C 1845.00 692.00 1793.00 692.00 1741.00 692.00
C 1741.30 677.21 1740.60 663.94 1741.00 649.00 C 1741.40 634.06 1740.23 621.49 1741.00 606.00 C 1741.77 590.51 1722.11 596.64 1709.00 596.00 C 1695.89 595.36 1679.68 596.30 1666.00 596.00 C 1652.32 595.70 1637.94 596.14 1624.00 596.00 C 1610.06 595.86 1595.02 596.07 1581.00 596.00 C 1566.98 595.93 1553.02 596.05 1539.00 596.00
C 1539.00 677.00 1538.99 758.00 1539.00 839.00
C 1523.34 839.00 1507.66 839.00 1492.00 839.00
C 1492.00 858.00 1492.00 877.00 1492.00 896.00
C 1480.00 896.00 1468.00 896.00 1456.00 896.00
C 1456.00 906.00 1456.00 916.00 1456.00 926.00 Z"/>
</g>
<g fill="#B1B2B1" fill-opacity="1.00" stroke="None">
<path d="
M 702.00 827.00 
C 702.25 832.94 701.66 839.08 702.00 845.00 C 702.34 850.92 701.38 858.26 702.00 864.00 C 702.62 869.74 700.60 876.78 702.00 882.00 C 703.40 887.22 699.07 896.82 702.00 901.00
C 705.83 904.83 715.33 900.93 721.00 902.00 C 726.67 903.07 734.76 901.50 741.00 902.00 C 747.24 902.50 754.48 901.74 761.00 902.00 C 767.52 902.26 775.45 901.79 782.00 902.00 C 788.55 902.21 795.62 901.71 802.00 902.00 C 808.38 902.29 815.98 901.42 822.00 902.00 C 828.02 902.58 836.77 900.75 842.00 902.00 C 847.23 903.25 859.15 898.93 862.00 903.00
C 865.29 907.69 860.51 918.05 862.00 924.00 C 863.49 929.95 861.32 938.49 862.00 945.00 C 862.68 951.51 861.68 959.26 862.00 966.00 C 862.32 972.74 861.82 980.21 862.00 987.00 C 862.18 993.79 861.83 1001.29 862.00 1008.00 C 862.17 1014.71 861.74 1022.57 862.00 1029.00 C 862.26 1035.43 861.48 1044.23 862.00 1050.00 C 862.52 1055.77 867.92 1057.92 872.00 1061.00
C 872.81 1061.61 874.01 1062.80 875.00 1063.00
C 872.44 1055.16 876.15 1045.31 875.00 1037.00 C 873.85 1028.69 875.50 1019.54 875.00 1011.00 C 874.50 1002.46 875.24 992.56 875.00 984.00 C 874.76 975.44 875.11 966.39 875.00 958.00 C 874.89 949.61 875.05 940.02 875.00 932.00 C 874.95 923.98 872.31 910.93 882.00 912.00 C 891.69 913.07 899.39 910.91 908.00 912.00 C 916.61 913.09 926.51 910.18 934.00 912.00 C 941.49 913.82 955.05 907.89 960.00 913.00
C 960.25 913.26 960.00 914.00 960.00 914.00
C 960.00 920.70 959.98 927.29 960.00 934.00 C 960.02 940.71 959.94 947.25 960.00 954.00 C 960.06 960.75 959.87 968.27 960.00 975.00 C 960.13 981.73 959.69 988.38 960.00 995.00 C 960.31 1001.62 959.34 1009.61 960.00 1016.00 C 960.66 1022.39 958.47 1030.20 960.00 1036.00 C 961.53 1041.80 956.76 1052.37 960.00 1057.00
C 969.33 1057.00 978.67 1057.00 988.00 1057.00
C 988.67 985.50 986.67 912.68 989.00 842.00
C 992.92 833.62 999.15 833.37 1003.75 824.75 C 1008.36 816.13 1016.95 815.27 1027.00 816.00 C 1037.05 816.73 1049.71 816.00 1060.00 816.00
C 1057.67 777.20 1059.67 737.25 1059.00 698.00
C 1011.66 698.00 964.34 698.00 917.00 698.00
C 917.00 722.00 917.00 746.00 917.00 770.00
C 905.93 769.82 893.98 770.23 883.00 770.00 C 872.02 769.77 860.75 770.46 850.00 770.00 C 839.25 769.54 827.34 770.99 817.00 770.00 C 806.66 769.01 799.71 772.90 792.08 778.08 C 784.45 783.27 774.15 782.93 775.00 794.00 C 775.85 805.07 774.36 815.94 775.00 827.00
C 750.67 827.00 726.33 827.00 702.00 827.00 Z"/>
</g>
<g fill="#7F7E7E" fill-opacity="1.00" stroke="None">
<path d="
M 1642.00 783.00 
C 1657.60 783.90 1649.49 762.90 1651.00 751.00 C 1652.51 739.10 1649.87 722.34 1651.00 710.00
C 1696.34 710.00 1741.66 710.00 1787.00 710.00
C 1787.50 710.00 1788.00 710.00 1788.00 710.00
C 1774.55 707.70 1760.42 709.62 1746.00 709.00 C 1731.58 708.38 1718.92 709.80 1704.00 709.00 C 1689.08 708.20 1676.87 710.48 1661.00 709.00 C 1645.13 707.52 1650.31 726.86 1650.00 740.00 C 1649.69 753.14 1650.24 768.64 1650.00 782.00
C 1647.66 782.60 1643.54 780.80 1642.00 783.00 Z"/>
</g>
<g fill="#B1B2B1" fill-opacity="1.00" stroke="None">
<path d="
M 0.00 945.00 
C 21.33 945.00 42.67 945.00 64.00 945.00
C 63.92 933.76 64.11 918.88 64.00 908.00 C 63.89 897.12 74.48 893.81 80.00 886.00
C 80.95 884.68 82.01 883.21 83.00 882.00
C 94.67 867.77 109.38 872.15 127.00 872.00 C 144.62 871.85 164.20 872.00 182.00 872.00
C 182.00 842.33 182.00 812.67 182.00 783.00
C 158.13 778.41 134.54 772.76 111.00 767.00
C 111.00 748.00 111.00 729.00 111.00 710.00
C 74.00 710.00 37.00 710.00 0.00 710.00
L 0.00 945.00 Z"/>
</g>
<g fill="#525151" fill-opacity="1.00" stroke="None">
<path d="
M 1642.00 783.00 
C 1638.62 787.83 1643.61 798.98 1642.00 805.00 C 1640.39 811.02 1642.72 819.44 1642.00 826.00 C 1641.28 832.56 1642.33 840.20 1642.00 847.00 C 1641.67 853.80 1642.15 861.09 1642.00 868.00 C 1641.85 874.91 1642.07 882.04 1642.00 889.00 C 1641.93 895.96 1642.03 903.02 1642.00 910.00 C 1641.97 916.98 1642.01 924.01 1642.00 931.00 C 1641.99 937.99 1642.00 945.00 1642.00 952.00 C 1642.00 959.00 1642.00 966.00 1642.00 973.00 C 1642.00 980.00 1641.99 987.00 1642.00 994.00 C 1642.01 1001.00 1641.98 1008.00 1642.00 1015.00
C 1642.00 1015.50 1642.00 1016.00 1642.00 1016.00
C 1646.77 1011.41 1641.58 999.13 1643.00 992.00 C 1644.42 984.87 1642.36 973.97 1643.00 966.00 C 1643.64 958.03 1642.71 948.35 1643.00 940.00 C 1643.29 931.65 1642.87 922.53 1643.00 914.00 C 1643.13 905.48 1642.94 896.60 1643.00 888.00 C 1643.06 879.40 1642.97 870.64 1643.00 862.00 C 1643.03 853.36 1642.99 844.65 1643.00 836.00 C 1643.01 827.35 1642.99 818.66 1643.00 810.00 C 1643.01 801.34 1642.99 792.66 1643.00 784.00
C 1657.47 781.34 1674.42 784.84 1689.00 783.00 C 1703.58 781.16 1714.52 785.15 1723.75 795.25 C 1732.98 805.35 1740.32 806.27 1749.25 816.75 C 1758.17 827.23 1773.46 827.21 1787.00 826.00
C 1784.00 821.75 1788.33 812.44 1787.00 807.00 C 1785.67 801.56 1787.55 794.04 1787.00 788.00 C 1786.45 781.96 1787.22 774.26 1787.00 768.00 C 1786.78 761.74 1786.99 755.34 1787.00 749.00 C 1787.01 742.66 1786.76 736.43 1787.00 730.00 C 1787.24 723.57 1786.42 716.45 1787.00 710.00
C 1741.66 710.00 1696.34 710.00 1651.00 710.00
C 1649.87 722.34 1652.51 739.10 1651.00 751.00 C 1649.49 762.90 1657.60 783.90 1642.00 783.00 Z"/>
</g>
<g fill="#656465" fill-opacity="1.00" stroke="None">
<path d="
M 1787.00 826.00 
C 1806.58 827.84 1829.04 828.75 1849.00 827.00
C 1849.00 826.50 1849.00 826.00 1849.00 826.00
C 1828.67 826.00 1808.33 826.00 1788.00 826.00
C 1785.38 787.57 1791.49 748.35 1788.00 710.00
C 1788.00 710.00 1787.50 710.00 1787.00 710.00
C 1786.42 716.45 1787.24 723.57 1787.00 730.00 C 1786.76 736.43 1787.01 742.66 1787.00 749.00 C 1786.99 755.34 1786.78 761.74 1787.00 768.00 C 1787.22 774.26 1786.45 781.96 1787.00 788.00 C 1787.55 794.04 1785.67 801.56 1787.00 807.00 C 1788.33 812.44 1784.00 821.75 1787.00 826.00 Z"/>
</g>
<g fill="#9D9C9E" fill-opacity="1.00" stroke="None">
<path d="
M 1200.00 720.00 
C 1205.30 719.65 1210.71 720.47 1216.00 720.00
C 1216.00 719.50 1216.00 719.00 1216.00 719.00
C 1212.98 718.73 1201.68 717.60 1200.00 720.00 Z"/>
</g>
<g fill="#CFCFCF" fill-opacity="1.00" stroke="None">
<path d="
M 1216.00 720.00 
C 1216.00 727.24 1215.36 734.80 1216.00 742.00
C 1216.00 742.04 1217.00 742.00 1217.00 742.00
C 1217.41 737.51 1219.03 721.92 1216.00 719.00
C 1216.00 719.00 1216.00 719.50 1216.00 720.00 Z"/>
</g>
<g fill="#373739" fill-opacity="1.00" stroke="None">
<path d="
M 1103.00 739.00 
C 1102.79 745.18 1103.28 751.87 1103.00 758.00 C 1102.72 764.13 1103.52 772.15 1103.00 778.00 C 1102.48 783.85 1104.17 791.96 1103.00 797.00 C 1101.83 802.04 1105.93 813.25 1102.00 816.00
C 1097.57 819.10 1086.66 814.84 1081.00 816.00 C 1075.34 817.16 1066.00 816.00 1060.00 816.00
C 1049.71 816.00 1037.05 816.73 1027.00 816.00 C 1016.95 815.27 1008.36 816.13 1003.75 824.75 C 999.15 833.37 992.92 833.62 989.00 842.00
C 985.33 854.25 990.59 869.12 989.00 882.00 C 987.41 894.88 989.58 908.79 989.00 922.00 C 988.42 935.21 989.00 949.68 989.00 963.00
C 997.45 963.00 1005.52 963.00 1014.00 963.00 C 1022.48 963.00 1031.50 963.00 1040.00 963.00 C 1048.50 963.00 1056.49 963.00 1065.00 963.00 C 1073.51 963.00 1082.49 963.01 1091.00 963.00 C 1099.51 962.99 1107.48 963.01 1116.00 963.00 C 1124.52 962.99 1133.47 963.02 1142.00 963.00 C 1150.53 962.98 1159.54 963.05 1168.00 963.00 C 1176.46 962.95 1184.66 963.12 1193.00 963.00 C 1201.34 962.88 1210.86 963.25 1219.00 963.00 C 1227.14 962.75 1236.36 963.57 1244.00 963.00 C 1251.64 962.43 1263.35 964.22 1270.00 963.00 C 1276.66 961.78 1291.06 966.56 1294.00 961.00
C 1294.00 921.67 1294.00 882.33 1294.00 843.00
C 1281.50 842.34 1267.68 844.33 1256.00 842.00
C 1251.45 837.45 1256.16 823.84 1255.00 817.00 C 1253.85 810.16 1255.00 798.30 1255.00 791.00
C 1255.00 775.00 1255.00 759.00 1255.00 743.00
C 1249.48 743.50 1240.25 743.57 1235.00 743.00 C 1229.75 742.43 1219.37 745.50 1216.00 742.00
C 1215.36 734.80 1216.00 727.24 1216.00 720.00
C 1210.71 720.47 1205.30 719.65 1200.00 720.00
C 1197.34 723.80 1203.67 736.15 1198.67 738.67 C 1193.67 741.19 1185.75 737.99 1180.00 739.00 C 1174.25 740.01 1167.01 738.35 1161.00 739.00 C 1154.99 739.65 1146.93 738.25 1141.00 739.00 C 1135.07 739.75 1127.41 737.59 1122.00 739.00 C 1116.59 740.41 1107.28 736.00 1103.00 739.00 Z"/>
</g>
<g fill="#4F4E4E" fill-opacity="1.00" stroke="None">
<path d="
M 320.00 799.00 
C 315.77 803.96 308.39 808.99 306.00 815.00
C 303.21 826.45 307.43 839.17 306.00 851.00 C 304.57 862.83 307.08 876.05 306.00 888.00
C 319.00 887.98 332.00 888.02 345.00 888.00
C 345.00 958.34 345.00 1028.66 345.00 1099.00
C 355.00 1099.00 365.00 1099.00 375.00 1099.00
C 374.23 996.72 376.35 895.17 376.00 793.00
C 409.70 810.43 442.52 830.14 475.00 850.00
C 470.11 843.93 475.42 831.97 474.00 824.00 C 472.58 816.03 474.53 804.62 474.00 796.00 C 473.47 787.38 474.00 776.80 474.00 768.00
C 474.00 757.67 474.00 747.33 474.00 737.00
C 427.00 737.00 380.00 737.00 333.00 737.00
C 333.95 749.03 331.73 763.18 333.00 775.00 C 334.27 786.82 326.91 790.91 320.00 799.00 Z"/>
</g>
<g fill="#B1B2B1" fill-opacity="1.00" stroke="None">
<path d="
M 474.00 768.00 
C 475.18 780.19 473.55 796.47 475.00 809.00 C 476.45 821.53 470.42 839.01 476.00 850.00
C 481.08 852.00 487.80 855.69 492.08 858.92 C 496.35 862.16 505.27 864.72 508.00 869.00
C 512.66 876.30 507.56 888.94 509.00 898.00 C 510.44 907.06 508.34 918.40 509.00 928.00 C 509.66 937.60 508.70 948.14 509.00 958.00 C 509.30 967.86 508.85 977.96 509.00 988.00 C 509.15 998.04 508.88 1008.89 509.00 1019.00
C 513.00 1019.00 517.00 1019.00 521.00 1019.00
C 520.93 1004.36 521.09 989.63 521.00 975.00 C 520.91 960.37 521.17 945.61 521.00 931.00 C 520.83 916.39 521.37 901.54 521.00 887.00 C 520.63 872.46 521.82 857.38 521.00 843.00 C 520.18 828.62 519.80 818.11 530.75 808.75 C 541.70 799.40 554.34 803.49 569.00 803.00 C 583.66 802.51 598.29 803.23 613.00 803.00 C 627.71 802.77 642.20 803.12 657.00 803.00 C 671.80 802.88 687.15 803.09 702.00 803.00
C 652.32 800.67 600.50 802.67 550.00 802.00
C 550.00 790.67 550.00 779.33 550.00 768.00
C 525.00 768.00 500.00 768.00 475.00 768.00
C 474.25 763.59 475.99 756.10 475.00 752.00 C 474.01 747.90 477.36 739.35 474.00 737.00
C 474.00 747.33 474.00 757.67 474.00 768.00 Z"/>
</g>
<g fill="#818083" fill-opacity="1.00" stroke="None">
<path d="
M 1102.00 816.00 
C 1105.93 813.25 1101.83 802.04 1103.00 797.00 C 1104.17 791.96 1102.48 783.85 1103.00 778.00 C 1103.52 772.15 1102.72 764.13 1103.00 758.00 C 1103.28 751.87 1102.79 745.18 1103.00 739.00
C 1099.07 741.75 1103.17 752.96 1102.00 758.00 C 1100.83 763.04 1102.52 771.15 1102.00 777.00 C 1101.48 782.85 1102.28 790.87 1102.00 797.00 C 1101.72 803.13 1102.21 809.82 1102.00 816.00 Z"/>
</g>
<g fill="#6D6C6E" fill-opacity="1.00" stroke="None">
<path d="
M 1255.00 743.00 
C 1255.00 742.50 1255.00 742.00 1255.00 742.00
C 1242.56 740.88 1229.49 742.00 1217.00 742.00
C 1217.00 742.00 1216.00 742.04 1216.00 742.00
C 1219.37 745.50 1229.75 742.43 1235.00 743.00 C 1240.25 743.57 1249.48 743.50 1255.00 743.00 Z"/>
</g>
<g fill="#B1B2B1" fill-opacity="1.00" stroke="None">
<path d="
M 1255.00 743.00 
C 1255.00 759.00 1255.00 775.00 1255.00 791.00
C 1256.57 807.17 1255.91 825.10 1256.00 842.00
C 1269.00 842.00 1282.00 842.00 1295.00 842.00
C 1295.00 900.33 1295.00 958.67 1295.00 1017.00
C 1297.67 1017.00 1300.33 1017.00 1303.00 1017.00
C 1303.25 1009.65 1302.67 1001.24 1303.00 994.00 C 1303.33 986.76 1302.37 977.85 1303.00 971.00 C 1303.63 964.15 1301.65 953.91 1303.00 948.00 C 1304.35 942.09 1299.55 929.11 1304.00 926.00
C 1308.52 922.83 1318.25 927.44 1324.00 926.00 C 1329.75 924.56 1337.63 926.69 1344.00 926.00 C 1350.37 925.31 1358.39 926.46 1365.00 926.00 C 1371.61 925.54 1378.29 926.52 1385.00 926.00 C 1391.71 925.48 1399.29 926.89 1406.00 926.00
C 1409.00 924.75 1412.22 923.29 1415.00 922.00
C 1410.86 912.14 1413.65 897.43 1413.00 885.00 C 1412.35 872.57 1413.49 858.57 1413.00 846.00
C 1377.67 846.00 1342.33 846.00 1307.00 846.00
C 1307.00 827.66 1307.00 809.34 1307.00 791.00
C 1290.00 791.00 1273.00 791.00 1256.00 791.00
C 1254.73 783.92 1257.69 772.66 1256.00 766.00 C 1254.31 759.34 1259.70 746.52 1255.00 742.00
C 1255.00 742.00 1255.00 742.50 1255.00 743.00 Z"/>
</g>
<g fill="#848484" fill-opacity="1.00" stroke="None">
<path d="
M 475.00 850.00 
C 475.32 850.24 476.00 850.00 476.00 850.00
C 470.42 839.01 476.45 821.53 475.00 809.00 C 473.55 796.47 475.18 780.19 474.00 768.00
C 474.00 776.80 473.47 787.38 474.00 796.00 C 474.53 804.62 472.58 816.03 474.00 824.00 C 475.42 831.97 470.11 843.93 475.00 850.00 Z"/>
</g>
<g fill="#292D30" fill-opacity="1.00" stroke="None">
<path d="
M 1642.00 1016.00 
C 1631.20 1016.98 1619.85 1016.00 1609.00 1016.00
C 1567.00 1016.00 1525.00 1016.00 1483.00 1016.00
C 1482.99 1027.33 1483.01 1038.68 1483.00 1050.00 C 1482.99 1061.32 1483.02 1072.69 1483.00 1084.00 C 1482.98 1095.31 1483.04 1106.72 1483.00 1118.00 C 1482.97 1129.28 1483.08 1140.78 1483.00 1152.00 C 1482.92 1163.22 1483.18 1174.92 1483.00 1186.00 C 1482.82 1197.08 1483.39 1209.22 1483.00 1220.00 C 1482.61 1230.78 1483.87 1243.90 1483.00 1254.00 C 1482.13 1264.10 1487.86 1280.79 1476.00 1281.00 C 1464.14 1281.21 1453.73 1280.85 1442.00 1281.00
C 1441.34 1162.76 1443.33 1043.79 1441.00 926.00
C 1440.72 923.00 1442.62 913.60 1440.00 912.00
C 1433.47 911.70 1420.95 919.25 1415.00 922.00
C 1412.22 923.29 1409.00 924.75 1406.00 926.00
C 1405.74 926.11 1405.28 926.77 1405.00 927.00
C 1394.42 935.64 1378.08 937.12 1365.98 943.98 C 1353.87 950.83 1338.88 955.89 1326.00 961.00
C 1326.03 972.71 1325.97 984.27 1326.00 996.00 C 1326.03 1007.73 1325.93 1019.21 1326.00 1031.00 C 1326.07 1042.79 1325.86 1054.08 1326.00 1066.00 C 1326.14 1077.92 1325.68 1088.77 1326.00 1101.00 C 1326.32 1113.23 1325.29 1123.08 1326.00 1136.00 C 1326.71 1148.92 1324.44 1156.56 1326.00 1171.00 C 1327.56 1185.44 1316.42 1182.81 1303.00 1183.00 C 1289.58 1183.19 1294.42 1168.32 1294.00 1157.00 C 1293.58 1145.68 1294.19 1133.51 1294.00 1122.00 C 1293.81 1110.49 1294.09 1098.59 1294.00 1087.00 C 1293.91 1075.41 1294.05 1063.63 1294.00 1052.00 C 1293.95 1040.37 1294.03 1028.64 1294.00 1017.00
C 1294.00 998.33 1294.00 979.67 1294.00 961.00
C 1291.06 966.56 1276.66 961.78 1270.00 963.00 C 1263.35 964.22 1251.64 962.43 1244.00 963.00 C 1236.36 963.57 1227.14 962.75 1219.00 963.00 C 1210.86 963.25 1201.34 962.88 1193.00 963.00 C 1184.66 963.12 1176.46 962.95 1168.00 963.00 C 1159.54 963.05 1150.53 962.98 1142.00 963.00 C 1133.47 963.02 1124.52 962.99 1116.00 963.00 C 1107.48 963.01 1099.51 962.99 1091.00 963.00 C 1082.49 963.01 1073.51 963.00 1065.00 963.00 C 1056.49 963.00 1048.50 963.00 1040.00 963.00 C 1031.50 963.00 1022.48 963.00 1014.00 963.00 C 1005.52 963.00 997.45 963.00 989.00 963.00
C 989.00 994.33 989.00 1025.67 989.00 1057.00
C 989.00 1090.67 989.00 1124.33 989.00 1158.00
C 963.00 1158.00 937.00 1158.00 911.00 1158.00
C 912.94 1143.31 908.41 1127.59 911.00 1113.00 C 913.59 1098.41 907.50 1089.58 896.75 1082.25 C 886.00 1074.92 881.83 1068.25 872.00 1061.00
C 867.92 1057.92 862.52 1055.77 862.00 1050.00 C 861.48 1044.23 862.26 1035.43 862.00 1029.00 C 861.74 1022.57 862.17 1014.71 862.00 1008.00 C 861.83 1001.29 862.18 993.79 862.00 987.00 C 861.82 980.21 862.32 972.74 862.00 966.00 C 861.68 959.26 862.68 951.51 862.00 945.00 C 861.32 938.49 863.49 929.95 862.00 924.00 C 860.51 918.05 865.29 907.69 862.00 903.00
C 805.40 902.41 748.19 904.23 692.00 902.00
C 692.00 943.33 692.00 984.67 692.00 1026.00
C 680.94 1026.24 667.86 1025.69 657.00 1026.00 C 646.14 1026.31 628.97 1021.85 630.00 1035.00 C 631.03 1048.15 629.51 1058.86 630.00 1071.00 C 630.49 1083.14 629.72 1095.78 630.00 1107.00 C 630.28 1118.22 632.09 1130.39 624.25 1137.25 C 616.41 1144.11 612.61 1147.14 605.75 1153.75 C 598.89 1160.36 593.92 1164.73 587.25 1171.25 C 580.58 1177.76 575.70 1182.09 568.75 1188.75 C 561.80 1195.41 556.08 1202.71 545.00 1201.00 C 533.92 1199.29 520.31 1202.28 509.00 1201.00
C 509.00 1140.34 509.00 1079.66 509.00 1019.00
C 508.12 1009.95 507.87 999.80 508.00 990.00 C 508.13 980.20 508.23 969.81 508.00 960.00 C 507.77 950.19 508.73 939.69 508.00 930.00 C 507.27 920.31 509.71 909.37 508.00 900.00 C 506.29 890.63 511.70 877.57 508.00 869.00
C 505.27 864.72 496.35 862.16 492.08 858.92 C 487.80 855.69 481.08 852.00 476.00 850.00
C 476.00 850.00 475.32 850.24 475.00 850.00
C 442.52 830.14 409.70 810.43 376.00 793.00
C 376.35 895.17 374.23 996.72 375.00 1099.00
C 365.00 1099.00 355.00 1099.00 345.00 1099.00
C 345.00 1028.66 345.00 958.34 345.00 888.00
C 332.00 888.02 319.00 887.98 306.00 888.00
C 305.50 888.00 305.00 888.00 305.00 888.00
C 291.67 888.00 278.33 888.00 265.00 888.00
C 261.67 888.00 258.33 887.99 255.00 888.00
C 254.50 888.00 254.00 888.00 254.00 888.00
C 232.00 888.00 210.00 888.00 188.00 888.00
C 188.68 912.92 187.04 937.26 187.00 962.00
C 163.00 962.00 139.00 962.00 115.00 962.00
C 115.00 1079.34 115.00 1196.66 115.00 1314.00
C 104.67 1314.00 94.33 1314.00 84.00 1314.00
C 84.00 1263.00 84.00 1212.00 84.00 1161.00
C 56.00 1161.00 28.00 1161.00 0.00 1161.00
L 0.00 1338.00
L 1913.00 1338.00
L 1913.00 1111.00
C 1899.57 1101.35 1889.93 1093.30 1877.25 1081.75 C 1864.56 1070.20 1848.06 1063.32 1850.00 1043.00 C 1851.94 1022.68 1849.24 998.15 1850.00 977.00 C 1850.76 955.85 1849.91 932.42 1850.00 911.00 C 1850.09 889.58 1850.97 866.99 1849.00 846.00
C 1848.42 839.79 1849.00 833.24 1849.00 827.00
C 1829.04 828.75 1806.58 827.84 1787.00 826.00
C 1773.46 827.21 1758.17 827.23 1749.25 816.75 C 1740.32 806.27 1732.98 805.35 1723.75 795.25 C 1714.52 785.15 1703.58 781.16 1689.00 783.00 C 1674.42 784.84 1657.47 781.34 1643.00 784.00
C 1642.99 792.66 1643.01 801.34 1643.00 810.00 C 1642.99 818.66 1643.01 827.35 1643.00 836.00 C 1642.99 844.65 1643.03 853.36 1643.00 862.00 C 1642.97 870.64 1643.06 879.40 1643.00 888.00 C 1642.94 896.60 1643.13 905.48 1643.00 914.00 C 1642.87 922.53 1643.29 931.65 1643.00 940.00 C 1642.71 948.35 1643.64 958.03 1643.00 966.00 C 1642.36 973.97 1644.42 984.87 1643.00 992.00 C 1641.58 999.13 1646.77 1011.41 1642.00 1016.00 Z"/>
</g>
<g fill="#7D7D7D" fill-opacity="1.00" stroke="None">
<path d="
M 1256.00 842.00 
C 1255.91 825.10 1256.57 807.17 1255.00 791.00
C 1255.00 798.30 1253.85 810.16 1255.00 817.00 C 1256.16 823.84 1251.45 837.45 1256.00 842.00 Z"/>
</g>
<g fill="#B1B2B1" fill-opacity="1.00" stroke="None">
<path d="
M 265.00 888.00 
C 278.33 888.00 291.67 888.00 305.00 888.00
C 303.96 876.51 304.45 862.39 305.00 851.00 C 305.55 839.61 302.03 824.99 306.00 815.00
C 308.39 808.99 315.77 803.96 320.00 799.00
C 313.96 807.05 305.37 804.93 296.00 805.00 C 286.63 805.07 275.52 804.95 266.00 805.00
C 265.77 811.70 266.31 819.40 266.00 826.00 C 265.69 832.60 266.60 840.77 266.00 847.00 C 265.40 853.23 267.28 862.65 266.00 868.00 C 264.72 873.35 269.30 884.96 265.00 888.00 Z"/>
</g>
<g fill="#4B494A" fill-opacity="1.00" stroke="None">
<path d="
M 509.00 1019.00 
C 509.00 1079.66 509.00 1140.34 509.00 1201.00
C 520.31 1202.28 533.92 1199.29 545.00 1201.00 C 556.08 1202.71 561.80 1195.41 568.75 1188.75 C 575.70 1182.09 580.58 1177.76 587.25 1171.25 C 593.92 1164.73 598.89 1160.36 605.75 1153.75 C 612.61 1147.14 616.41 1144.11 624.25 1137.25 C 632.09 1130.39 630.28 1118.22 630.00 1107.00 C 629.72 1095.78 630.49 1083.14 630.00 1071.00 C 629.51 1058.86 631.03 1048.15 630.00 1035.00 C 628.97 1021.85 646.14 1026.31 657.00 1026.00 C 667.86 1025.69 680.94 1026.24 692.00 1026.00
C 692.00 984.67 692.00 943.33 692.00 902.00
C 748.19 904.23 805.40 902.41 862.00 903.00
C 859.15 898.93 847.23 903.25 842.00 902.00 C 836.77 900.75 828.02 902.58 822.00 902.00 C 815.98 901.42 808.38 902.29 802.00 902.00 C 795.62 901.71 788.55 902.21 782.00 902.00 C 775.45 901.79 767.52 902.26 761.00 902.00 C 754.48 901.74 747.24 902.50 741.00 902.00 C 734.76 901.50 726.67 903.07 721.00 902.00 C 715.33 900.93 705.83 904.83 702.00 901.00
C 697.33 896.33 702.52 883.91 701.00 877.00 C 699.48 870.09 701.85 859.59 701.00 852.00 C 700.15 844.41 701.33 833.96 702.00 827.00
C 702.32 823.71 702.52 818.15 702.00 815.00 C 701.48 811.85 703.71 805.44 702.00 803.00
C 687.15 803.09 671.80 802.88 657.00 803.00 C 642.20 803.12 627.71 802.77 613.00 803.00 C 598.29 803.23 583.66 802.51 569.00 803.00 C 554.34 803.49 541.70 799.40 530.75 808.75 C 519.80 818.11 520.18 828.62 521.00 843.00 C 521.82 857.38 520.63 872.46 521.00 887.00 C 521.37 901.54 520.83 916.39 521.00 931.00 C 521.17 945.61 520.91 960.37 521.00 975.00 C 521.09 989.63 520.93 1004.36 521.00 1019.00
C 517.00 1019.00 513.00 1019.00 509.00 1019.00 Z"/>
</g>
<g fill="#717071" fill-opacity="1.00" stroke="None">
<path d="
M 305.00 888.00 
C 305.00 888.00 305.50 888.00 306.00 888.00
C 307.08 876.05 304.57 862.83 306.00 851.00 C 307.43 839.17 303.21 826.45 306.00 815.00
C 302.03 824.99 305.55 839.61 305.00 851.00 C 304.45 862.39 303.96 876.51 305.00 888.00 Z"/>
</g>
<g fill="#7C7C7C" fill-opacity="1.00" stroke="None">
<path d="
M 1849.00 827.00 
C 1849.00 833.24 1848.42 839.79 1849.00 846.00
C 1852.09 850.37 1863.44 845.72 1869.00 847.00 C 1874.56 848.28 1884.60 846.33 1891.00 847.00 C 1897.40 847.67 1906.36 846.50 1913.00 847.00
L 1913.00 846.00
C 1892.00 846.00 1871.00 846.00 1850.00 846.00
C 1848.04 840.87 1853.06 829.92 1849.00 826.00
C 1849.00 826.00 1849.00 826.50 1849.00 827.00 Z"/>
</g>
<g fill="#676767" fill-opacity="1.00" stroke="None">
<path d="
M 702.00 901.00 
C 699.07 896.82 703.40 887.22 702.00 882.00 C 700.60 876.78 702.62 869.74 702.00 864.00 C 701.38 858.26 702.34 850.92 702.00 845.00 C 701.66 839.08 702.25 832.94 702.00 827.00
C 701.33 833.96 700.15 844.41 701.00 852.00 C 701.85 859.59 699.48 870.09 701.00 877.00 C 702.52 883.91 697.33 896.33 702.00 901.00 Z"/>
</g>
<g fill="#6F6F71" fill-opacity="1.00" stroke="None">
<path d="
M 960.00 1057.00 
C 961.62 1059.31 971.05 1058.22 974.00 1058.00 C 976.95 1057.78 987.09 1059.71 989.00 1057.00
C 989.00 1025.67 989.00 994.33 989.00 963.00
C 989.00 949.68 988.42 935.21 989.00 922.00 C 989.58 908.79 987.41 894.88 989.00 882.00 C 990.59 869.12 985.33 854.25 989.00 842.00
C 986.67 912.68 988.67 985.50 988.00 1057.00
C 978.67 1057.00 969.33 1057.00 960.00 1057.00 Z"/>
</g>
<g fill="#686769" fill-opacity="1.00" stroke="None">
<path d="
M 1294.00 961.00 
C 1294.00 979.67 1294.00 998.33 1294.00 1017.00
C 1297.98 1022.63 1307.31 1016.35 1305.00 1010.00 C 1302.69 1003.65 1306.10 995.63 1305.00 989.00 C 1303.90 982.37 1305.48 975.79 1305.00 969.00 C 1304.52 962.21 1305.25 954.89 1305.00 948.00 C 1304.75 941.11 1305.19 933.92 1305.00 927.00
C 1338.34 927.00 1371.67 927.00 1405.00 927.00
C 1405.28 926.77 1405.74 926.11 1406.00 926.00
C 1399.29 926.89 1391.71 925.48 1385.00 926.00 C 1378.29 926.52 1371.61 925.54 1365.00 926.00 C 1358.39 926.46 1350.37 925.31 1344.00 926.00 C 1337.63 926.69 1329.75 924.56 1324.00 926.00 C 1318.25 927.44 1308.52 922.83 1304.00 926.00
C 1303.75 933.35 1304.33 941.76 1304.00 949.00 C 1303.67 956.24 1304.63 965.15 1304.00 972.00 C 1303.37 978.85 1305.35 989.09 1304.00 995.00 C 1302.65 1000.91 1307.45 1013.89 1303.00 1017.00
C 1300.33 1017.00 1297.67 1017.00 1295.00 1017.00
C 1295.00 958.67 1295.00 900.33 1295.00 842.00
C 1282.00 842.00 1269.00 842.00 1256.00 842.00
C 1267.68 844.33 1281.50 842.34 1294.00 843.00
C 1294.00 882.33 1294.00 921.67 1294.00 961.00 Z"/>
</g>
<g fill="#4B494A" fill-opacity="1.00" stroke="None">
<path d="
M 1913.00 1111.00 
L 1913.00 847.00
C 1906.36 846.50 1897.40 847.67 1891.00 847.00 C 1884.60 846.33 1874.56 848.28 1869.00 847.00 C 1863.44 845.72 1852.09 850.37 1849.00 846.00
C 1850.97 866.99 1850.09 889.58 1850.00 911.00 C 1849.91 932.42 1850.76 955.85 1850.00 977.00 C 1849.24 998.15 1851.94 1022.68 1850.00 1043.00 C 1848.06 1063.32 1864.56 1070.20 1877.25 1081.75 C 1889.93 1093.30 1899.57 1101.35 1913.00 1111.00 Z"/>
</g>
<g fill="#7E7E7F" fill-opacity="1.00" stroke="None">
<path d="
M 509.00 1019.00 
C 508.88 1008.89 509.15 998.04 509.00 988.00 C 508.85 977.96 509.30 967.86 509.00 958.00 C 508.70 948.14 509.66 937.60 509.00 928.00 C 508.34 918.40 510.44 907.06 509.00 898.00 C 507.56 888.94 512.66 876.30 508.00 869.00
C 511.70 877.57 506.29 890.63 508.00 900.00 C 509.71 909.37 507.27 920.31 508.00 930.00 C 508.73 939.69 507.77 950.19 508.00 960.00 C 508.23 969.81 508.13 980.20 508.00 990.00 C 507.87 999.80 508.12 1009.95 509.00 1019.00 Z"/>
</g>
<g fill="#706D70" fill-opacity="1.00" stroke="None">
<path d="
M 83.00 882.00 
C 96.73 867.72 114.84 873.74 134.00 873.00 C 153.16 872.26 174.44 873.39 194.00 873.00 C 213.56 872.61 234.33 873.29 254.00 873.00
C 254.00 878.00 254.00 883.00 254.00 888.00
C 254.00 888.00 254.50 888.00 255.00 888.00
C 255.00 882.67 255.00 877.33 255.00 872.00
C 230.67 872.00 206.33 872.00 182.00 872.00
C 164.20 872.00 144.62 871.85 127.00 872.00 C 109.38 872.15 94.67 867.77 83.00 882.00 Z"/>
</g>
<g fill="#484648" fill-opacity="1.00" stroke="None">
<path d="
M 83.00 882.00 
C 82.01 883.21 80.95 884.68 80.00 886.00
C 74.23 893.99 65.48 897.35 65.00 908.00 C 64.52 918.65 65.36 934.85 65.00 946.00
C 43.33 946.00 21.67 946.00 0.00 946.00
L 0.00 1161.00
C 28.00 1161.00 56.00 1161.00 84.00 1161.00
C 84.00 1212.00 84.00 1263.00 84.00 1314.00
C 94.33 1314.00 104.67 1314.00 115.00 1314.00
C 115.00 1196.66 115.00 1079.34 115.00 962.00
C 139.00 962.00 163.00 962.00 187.00 962.00
C 187.04 937.26 188.68 912.92 188.00 888.00
C 210.00 888.00 232.00 888.00 254.00 888.00
C 254.00 883.00 254.00 878.00 254.00 873.00
C 234.33 873.29 213.56 872.61 194.00 873.00 C 174.44 873.39 153.16 872.26 134.00 873.00 C 114.84 873.74 96.73 867.72 83.00 882.00 Z"/>
</g>
<g fill="#797979" fill-opacity="1.00" stroke="None">
<path d="
M 0.00 945.00 
L 0.00 946.00
C 21.67 946.00 43.33 946.00 65.00 946.00
C 65.36 934.85 64.52 918.65 65.00 908.00 C 65.48 897.35 74.23 893.99 80.00 886.00
C 74.48 893.81 63.89 897.12 64.00 908.00 C 64.11 918.88 63.92 933.76 64.00 945.00
C 42.67 945.00 21.33 945.00 0.00 945.00 Z"/>
</g>
<g fill="#767374" fill-opacity="1.00" stroke="None">
<path d="
M 1440.00 912.00 
C 1442.62 913.60 1440.72 923.00 1441.00 926.00
C 1444.04 930.30 1455.64 925.73 1461.00 927.00 C 1466.36 928.27 1475.74 926.43 1482.00 927.00 C 1488.26 927.57 1496.33 926.75 1503.00 927.00 C 1509.67 927.25 1517.14 926.91 1524.00 927.00 C 1530.86 927.09 1538.05 927.01 1545.00 927.00 C 1551.96 926.99 1558.98 927.11 1566.00 927.00 C 1573.02 926.89 1579.90 927.29 1587.00 927.00 C 1594.10 926.71 1601.88 927.63 1609.00 927.00
C 1609.00 926.50 1609.00 926.00 1609.00 926.00
C 1583.70 923.71 1557.38 926.87 1532.00 926.00 C 1506.62 925.13 1481.37 926.00 1456.00 926.00
C 1451.34 926.00 1446.67 926.00 1442.00 926.00
C 1441.09 921.33 1444.07 912.19 1440.00 912.00 Z"/>
</g>
<g fill="#999999" fill-opacity="1.00" stroke="None">
<path d="
M 875.00 1063.00 
C 876.47 1063.29 875.98 1051.49 876.00 1047.00 C 876.02 1042.51 875.97 1033.49 876.00 1028.00 C 876.03 1022.51 875.94 1014.92 876.00 1009.00 C 876.06 1003.08 875.88 996.08 876.00 990.00 C 876.12 983.92 875.73 977.07 876.00 971.00 C 876.27 964.93 875.40 957.87 876.00 952.00 C 876.60 946.13 874.66 938.38 876.00 933.00 C 877.34 927.62 873.03 918.24 876.00 914.00
C 878.88 909.89 890.57 914.13 896.00 913.00 C 901.43 911.87 910.69 913.38 917.00 913.00 C 923.31 912.62 931.26 912.89 938.00 913.00 C 944.74 913.11 953.16 912.38 960.00 913.00
C 955.05 907.89 941.49 913.82 934.00 912.00 C 926.51 910.18 916.61 913.09 908.00 912.00 C 899.39 910.91 891.69 913.07 882.00 912.00 C 872.31 910.93 874.95 923.98 875.00 932.00 C 875.05 940.02 874.89 949.61 875.00 958.00 C 875.11 966.39 874.76 975.44 875.00 984.00 C 875.24 992.56 874.50 1002.46 875.00 1011.00 C 875.50 1019.54 873.85 1028.69 875.00 1037.00 C 876.15 1045.31 872.44 1055.16 875.00 1063.00 Z"/>
</g>
<g fill="#646464" fill-opacity="1.00" stroke="None">
<path d="
M 876.00 914.00 
C 903.84 912.18 932.21 916.42 960.00 914.00
C 960.00 914.00 960.25 913.26 960.00 913.00
C 953.16 912.38 944.74 913.11 938.00 913.00 C 931.26 912.89 923.31 912.62 917.00 913.00 C 910.69 913.38 901.43 911.87 896.00 913.00 C 890.57 914.13 878.88 909.89 876.00 914.00 Z"/>
</g>
<g fill="#484748" fill-opacity="1.00" stroke="None">
<path d="
M 875.00 1063.00 
C 874.01 1062.80 872.81 1061.61 872.00 1061.00
C 881.83 1068.25 886.00 1074.92 896.75 1082.25 C 907.50 1089.58 913.59 1098.41 911.00 1113.00 C 908.41 1127.59 912.94 1143.31 911.00 1158.00
C 937.00 1158.00 963.00 1158.00 989.00 1158.00
C 989.00 1124.33 989.00 1090.67 989.00 1057.00
C 987.09 1059.71 976.95 1057.78 974.00 1058.00 C 971.05 1058.22 961.62 1059.31 960.00 1057.00
C 956.76 1052.37 961.53 1041.80 960.00 1036.00 C 958.47 1030.20 960.66 1022.39 960.00 1016.00 C 959.34 1009.61 960.31 1001.62 960.00 995.00 C 959.69 988.38 960.13 981.73 960.00 975.00 C 959.87 968.27 960.06 960.75 960.00 954.00 C 959.94 947.25 960.02 940.71 960.00 934.00 C 959.98 927.29 960.00 920.70 960.00 914.00
C 932.21 916.42 903.84 912.18 876.00 914.00
C 873.03 918.24 877.34 927.62 876.00 933.00 C 874.66 938.38 876.60 946.13 876.00 952.00 C 875.40 957.87 876.27 964.93 876.00 971.00 C 875.73 977.07 876.12 983.92 876.00 990.00 C 875.88 996.08 876.06 1003.08 876.00 1009.00 C 875.94 1014.92 876.03 1022.51 876.00 1028.00 C 875.97 1033.49 876.02 1042.51 876.00 1047.00 C 875.98 1051.49 876.47 1063.29 875.00 1063.00 Z"/>
</g>
<g fill="#919191" fill-opacity="1.00" stroke="None">
<path d="
M 1303.00 1017.00 
C 1307.45 1013.89 1302.65 1000.91 1304.00 995.00 C 1305.35 989.09 1303.37 978.85 1304.00 972.00 C 1304.63 965.15 1303.67 956.24 1304.00 949.00 C 1304.33 941.76 1303.75 933.35 1304.00 926.00
C 1299.55 929.11 1304.35 942.09 1303.00 948.00 C 1301.65 953.91 1303.63 964.15 1303.00 971.00 C 1302.37 977.85 1303.33 986.76 1303.00 994.00 C 1302.67 1001.24 1303.25 1009.65 1303.00 1017.00 Z"/>
</g>
<g fill="#484648" fill-opacity="1.00" stroke="None">
<path d="
M 1609.00 1016.00 
C 1609.00 986.33 1609.01 956.67 1609.00 927.00
C 1601.88 927.63 1594.10 926.71 1587.00 927.00 C 1579.90 927.29 1573.02 926.89 1566.00 927.00 C 1558.98 927.11 1551.96 926.99 1545.00 927.00 C 1538.05 927.01 1530.86 927.09 1524.00 927.00 C 1517.14 926.91 1509.67 927.25 1503.00 927.00 C 1496.33 926.75 1488.26 927.57 1482.00 927.00 C 1475.74 926.43 1466.36 928.27 1461.00 927.00 C 1455.64 925.73 1444.04 930.30 1441.00 926.00
C 1443.33 1043.79 1441.34 1162.76 1442.00 1281.00
C 1453.73 1280.85 1464.14 1281.21 1476.00 1281.00 C 1487.86 1280.79 1482.13 1264.10 1483.00 1254.00 C 1483.87 1243.90 1482.61 1230.78 1483.00 1220.00 C 1483.39 1209.22 1482.82 1197.08 1483.00 1186.00 C 1483.18 1174.92 1482.92 1163.22 1483.00 1152.00 C 1483.08 1140.78 1482.97 1129.28 1483.00 1118.00 C 1483.04 1106.72 1482.98 1095.31 1483.00 1084.00 C 1483.02 1072.69 1482.99 1061.32 1483.00 1050.00 C 1483.01 1038.68 1482.99 1027.33 1483.00 1016.00
C 1525.00 1016.00 1567.00 1016.00 1609.00 1016.00 Z"/>
</g>
<g fill="#979798" fill-opacity="1.00" stroke="None">
<path d="
M 1609.00 927.00 
C 1609.01 956.67 1609.00 986.33 1609.00 1016.00
C 1619.85 1016.00 1631.20 1016.98 1642.00 1016.00
C 1642.00 1016.00 1642.00 1015.50 1642.00 1015.00
C 1631.33 1015.00 1620.67 1015.00 1610.00 1015.00
C 1609.78 1007.65 1610.29 999.25 1610.00 992.00 C 1609.71 984.75 1610.58 976.94 1610.00 970.00 C 1609.42 963.06 1611.21 953.31 1610.00 947.00 C 1608.79 940.69 1613.24 930.11 1609.00 926.00
C 1609.00 926.00 1609.00 926.50 1609.00 927.00 Z"/>
</g>
<g fill="#484647" fill-opacity="1.00" stroke="None">
<path d="
M 1294.00 1017.00 
C 1294.03 1028.64 1293.95 1040.37 1294.00 1052.00 C 1294.05 1063.63 1293.91 1075.41 1294.00 1087.00 C 1294.09 1098.59 1293.81 1110.49 1294.00 1122.00 C 1294.19 1133.51 1293.58 1145.68 1294.00 1157.00 C 1294.42 1168.32 1289.58 1183.19 1303.00 1183.00 C 1316.42 1182.81 1327.56 1185.44 1326.00 1171.00 C 1324.44 1156.56 1326.71 1148.92 1326.00 1136.00 C 1325.29 1123.08 1326.32 1113.23 1326.00 1101.00 C 1325.68 1088.77 1326.14 1077.92 1326.00 1066.00 C 1325.86 1054.08 1326.07 1042.79 1326.00 1031.00 C 1325.93 1019.21 1326.03 1007.73 1326.00 996.00 C 1325.97 984.27 1326.03 972.71 1326.00 961.00
C 1338.88 955.89 1353.87 950.83 1365.98 943.98 C 1378.08 937.12 1394.42 935.64 1405.00 927.00
C 1371.67 927.00 1338.34 927.00 1305.00 927.00
C 1305.19 933.92 1304.75 941.11 1305.00 948.00 C 1305.25 954.89 1304.52 962.21 1305.00 969.00 C 1305.48 975.79 1303.90 982.37 1305.00 989.00 C 1306.10 995.63 1302.69 1003.65 1305.00 1010.00 C 1307.31 1016.35 1297.98 1022.63 1294.00 1017.00 Z"/>
</g>
</svg>