<?xml version="1.0" standalone="no"?><!DOCTYPE svg PUBLIC "-//W3C//DTD SVG 20010904//EN" "http://www.w3.org/TR/2001/REC-SVG-20010904/DTD/svg10.dtd"><svg xmlns="http://www.w3.org/2000/svg" version="1.0" width="512.000000pt" height="512.000000pt" viewBox="0 0 512.000000 512.000000" preserveAspectRatio="xMidYMid meet">

<g transform="translate(0.000000,512.000000) scale(0.100000,-0.100000)" fill="#ffffff" stroke="none">
<path d="M452 5100 c-109 -29 -187 -74 -272 -160 -87 -86 -131 -163 -160 -276 -36 -141 -18 -294 52 -427 42 -81 164 -203 245 -245 80 -42 198 -72 283 -72 76 0 198 28 261 60 l42 22 335 -335 336 -336 -48 -70 c-247 -369 -283 -835 -96 -1229 27 -56 70 -134 96 -173 l48 -70 -336 -336 -335 -335 -42 22 c-63 32 -185 60 -261 60 -85 0 -203 -30 -283 -72 -81 -42 -203 -164 -245 -245 -70 -133 -88 -286 -52 -427 29 -113 73 -190 160 -276 86 -87 163 -131 276 -160 141 -36 294 -18 427 52 81 42 203 164 245 245 42 80 72 198 72 283 0 76 -28 198 -60 261 l-22 42 335 335 336 336 70 -48 c223 -149 500 -227 760 -213 236 13 432 77 634 209 l78 51 336 -335 335 -335 -22 -42 c-32 -63 -60 -185 -60 -261 0 -85 30 -203 72 -283 42 -81 164 -203 245 -245 133 -70 286 -88 427 -52 113 29 190 73 276 160 87 86 131 163 160 276 36 141 18 294 -52 427 -42 81 -164 203 -245 245 -80 42 -198 72 -283 72 -76 0 -198 -28 -261 -60 l-42 -22 -335 335 -335 336 51 78 c206 315 263 680 162 1043 -27 94 -104 258 -166 351 l-48 70 336 336 335 335 42 -22 c63 -32 185 -60 261 -60 85 0 203 30 283 72 81 42 203 164 245 245 70 133 88 286 52 427 -29 113 -73 190 -160 276 -86 87 -163 131 -276 160 -141 36 -294 18 -427 -52 -81 -42 -203 -164 -245 -245 -88 -168 -93 -361 -15 -536 l26 -58 -333 -334 -333 -333 -73 48 c-314 212 -686 272 -1054 170 -94 -27 -258 -104 -351 -166 l-70 -48 -336 336 -335 335 22 42 c32 63 60 185 60 261 0 85 -30 203 -72 283 -42 81 -164 203 -245 245 -132 69 -291 88 -431 52z m282 -314 c105 -51 161 -144 161 -266 0 -85 -21 -142 -74 -203 -82 -92 -237 -121 -353 -64 -160 79 -215 278 -118 430 80 126 246 170 384 103z m3920 0 c105 -51 161 -144 161 -266 0 -85 -21 -142 -74 -203 -82 -92 -237 -121 -353 -64 -160 79 -215 278 -118 430 80 126 246 170 384 103z m-1859 -1305 c333 -87 594 -350 687 -691 33 -122 33 -338 0 -460 -42 -154 -122 -301 -229 -420 l-50 -54 -21 70 c-26 84 -82 173 -148 235 l-49 45 37 58 c60 94 83 174 83 296 0 83 -5 119 -23 172 -56 164 -180 288 -348 350 -85 31 -263 31 -348 0 -168 -62 -292 -186 -348 -350 -18 -53 -23 -89 -23 -172 0 -122 23 -202 83 -296 l37 -58 -49 -45 c-66 -62 -122 -151 -148 -235 l-21 -70 -50 54 c-105 117 -189 269 -229 415 -31 115 -31 355 0 468 103 377 407 648 797 710 69 12 281 -2 360 -22z m-150 -688 c92 -31 165 -134 165 -233 0 -60 -30 -130 -75 -175 -98 -98 -252 -98 -350 0 -98 98 -98 252 0 350 69 70 164 91 260 58z m100 -800 c101 -34 165 -134 165 -258 l0 -62 -72 -21 c-99 -28 -188 -42 -278 -42 -90 0 -179 14 -277 42 l-73 21 0 62 c0 84 24 150 75 200 61 61 104 73 271 74 106 1 152 -3 189 -16z m-2011 -1127 c105 -51 161 -144 161 -266 0 -85 -21 -142 -74 -203 -82 -92 -237 -121 -353 -64 -160 79 -215 278 -118 430 80 126 246 170 384 103z m3920 0 c105 -51 161 -144 161 -266 0 -85 -21 -142 -74 -203 -82 -92 -237 -121 -353 -64 -160 79 -215 278 -118 430 80 126 246 170 384 103z"/>
</g>
</svg>